<svg id="Capa_1" enable-background="new 0 0 380.829 380.829" height="512" viewBox="0 0 380.829 380.829" width="512" xmlns="http://www.w3.org/2000/svg"><g><g><path d="m308.701 67.664c-16.933-3.743-34.632-1.724-50.286 5.737-29.134 13.221-62.557 13.221-91.692 0-15.637-7.462-33.319-9.481-50.236-5.737-56.323 13.319-85.807 92.839-65.603 177.647s82.065 142.926 138.387 129.706c3.398-.78 6.733-1.815 9.977-3.093 8.701-3.442 18.387-3.442 27.088 0 3.165 1.263 6.416 2.295 9.727 3.093 56.372 13.319 118.333-44.898 138.437-129.706s-9.28-164.628-65.601-177.847" fill="#fe7058"/><path d="m374.302 245.311c-19.954 84.808-82.113 142.926-138.437 129.706-3.401-.771-6.736-1.805-9.977-3.093-8.694-3.389-18.345-3.389-27.038 0-3.235 1.303-6.573 2.336-9.977 3.093-39.61 9.379-81.965-16.462-110.6-62.209 26.888 28.286 226.787 96.431 275.327-94.436 12.822-50.236 6.335-98.976-11.873-132.699 33.823 30.631 48.14 93.637 32.575 159.638z" fill="#ea6453"/><path d="m212.569 91.759c-23.546.649-43.552-10.426-48.69-5.538-5.887 4.241 13.02 31.229 48.69 31.279 35.669.05 54.875-27.038 48.74-31.279-6.137-4.239-25.144 6.187-48.74 5.538z" fill="#ea6453"/><path d="m0 114.308s148.813 48.091 216.76-44.499v-7.234s-123.022-111.596-216.76 51.733z" fill="#65b54e"/><path d="m243.549 4.008c-4.316-.564-8.622 1.11-11.424 4.439-21.362 25.162-30.364 58.554-24.545 91.043.593 3.435 3.334 6.094 6.785 6.585h.649c4.444.645 8.57-2.435 9.215-6.879.084-.58.106-1.167.063-1.752-1.397-30.53 14.966-58.767 26.839-75.131 3.731-5.291 2.467-12.606-2.824-16.337-1.421-.999-3.046-1.671-4.758-1.968z" fill="#5fa348"/><path d="m214.065 73.401-1.496-7.683c-13.544-2.532-27.279-3.9-41.057-4.091-28.013-11.905-58.99-14.985-88.8-8.83 26.048-4.003 52.692-.972 77.175 8.78-22.919.304-45.68 3.865-67.597 10.576l-41.256.949 35.371 1.047c-19.685 6.733-38.039 16.864-54.228 29.933 15.472-8.952 32.134-15.669 49.487-19.954-4.801 8.137-10.939 15.408-18.158 21.502 8.034-6.169 14.923-13.7 20.354-22.249 17.368-4.661 35.086-7.898 52.98-9.677-10.234 16.14-25.275 28.668-43.001 35.817 19.149-6.633 35.614-19.332 46.894-36.168 24.397-2.137 48.937-2.121 73.332.048z" fill="#5fa348"/><path d="m288.297 126.88c-10.165.229-20.119 2.953-28.984 7.931-14.966 8.281-27.538 20.853-41.456 31.08-12.123 8.98-26.64 16.414-41.506 16.414-2.154-.018-4.304-.184-6.435-.499-16.911-2.593-30.281-14.966-44.898-23.646-.915-.558-1.865-1.057-2.843-1.496-4.122-1.931-8.617-2.936-13.17-2.943-16.975.263-31.124 13.068-33.075 29.933-1.856 15.919.771 32.039 7.583 46.545 12.358 24.31 33.246 43.21 58.667 53.079 19.81 7.751 40.938 11.579 62.209 11.274 5.887 0 11.723-.25 17.511-.699 32.626-2.593 66.998-13.27 86.504-39.51 12.822-17.261 17.66-39.161 19.954-60.513 1.51-11.258 1.138-22.687-1.097-33.823-2.325-11.222-8.904-21.11-18.358-27.587-6.153-3.752-13.247-5.673-20.453-5.538" fill="#fc7d68"/><path d="m280.116 92.906s60.813-14.966 66.45 67.048c-.249.001-11.075-68.345-66.45-67.048z" fill="#fff"/></g></g></svg>