<?xml version="1.0"?>
<svg xmlns="http://www.w3.org/2000/svg" xmlns:xlink="http://www.w3.org/1999/xlink" xmlns:svgjs="http://svgjs.com/svgjs" version="1.1" width="512" height="512" x="0" y="0" viewBox="0 0 464 464" style="enable-background:new 0 0 512 512" xml:space="preserve" class=""><g><path xmlns="http://www.w3.org/2000/svg" d="m265.816406 464c22.683594-.015625 42.710938-14.8125 49.382813-36.496094l31.625-102.703125c14.035156-45.617187 21.175781-93.074219 21.175781-140.800781 0-35.347656-28.652344-64-64-64h-16c-35.347656 0-64 28.652344-64 64v238.183594c0 23.09375 18.722656 41.816406 41.816406 41.816406zm0 0" fill="#42a917" data-original="#d43d3d" style="" class=""/><path xmlns="http://www.w3.org/2000/svg" d="m214 23.664062c-7.621094 20.542969-10.691406 42.492188-9 64.335938h11c17.671875 0 32 14.328125 32 32v16h-120v-16c0-17.671875 14.328125-32 32-32-.816406-29.753906 8.992188-58.820312 27.664062-82zm0 0" fill="#5f9548" data-original="#5f9548" style="" class=""/><path xmlns="http://www.w3.org/2000/svg" d="m102.183594 464c-22.683594-.015625-42.710938-14.8125-49.382813-36.496094l-31.625-102.703125c-14.035156-45.617187-21.175781-93.074219-21.175781-140.800781 0-35.347656 28.652344-64 64-64h16c35.347656 0 64 28.652344 64 64v238.183594c0 23.09375-18.722656 41.816406-41.816406 41.816406zm0 0" fill="#42a917" data-original="#d43d3d" style="" class=""/><path xmlns="http://www.w3.org/2000/svg" d="m96 168v29.183594c0 39.15625 2.992188 78.253906 8.945312 116.953125l13.789063 108.160156c3.601563 23.417969 23.753906 40.707031 47.449219 40.703125h29.601562c23.695313.003906 43.84375-17.285156 47.445313-40.703125l19.792969-108.160156c5.964843-38.699219 8.964843-77.796875 8.976562-116.953125v-29.183594c0-26.507812-21.492188-48-48-48h-80c-26.507812 0-48 21.492188-48 48zm0 0" fill="#42a917" data-original="#e94f4f" style="" class=""/><path xmlns="http://www.w3.org/2000/svg" d="m115.488281 396.800781 3.246094 25.511719c3.601563 23.417969 23.753906 40.707031 47.449219 40.703125h29.601562c23.695313.003906 43.84375-17.285156 47.445313-40.703125l19.792969-108.160156c5.960937-38.679688 8.960937-77.753906 8.976562-116.886719-24.410156 84.246094-80.503906 155.757813-156.511719 199.535156zm0 0" fill="#42a917" data-original="#e04646" style="" class=""/><path xmlns="http://www.w3.org/2000/svg" d="m120 192h16v17h-16zm0 0" fill="#c2ebb1" data-original="#f26666" style="" class=""/><path xmlns="http://www.w3.org/2000/svg" d="m129.601562 318.632812-4.480468-31.328124c-3.15625-20.421876-4.867188-41.042969-5.121094-61.703126l16-.175781c.226562 19.941407 1.859375 39.84375 4.886719 59.558594l4.503906 31.40625zm0 0" fill="#c2ebb1" data-original="#f26666" style="" class=""/><path xmlns="http://www.w3.org/2000/svg" d="m216 16c0 8.835938-7.164062 16-16 16s-16-7.164062-16-16 7.164062-16 16-16 16 7.164062 16 16zm0 0" fill="#6fdb20" data-original="#77ad50" style="" class=""/></g></svg>
