<svg height="512" viewBox="0 0 60 60" width="512" xmlns="http://www.w3.org/2000/svg"><g id="Page-1" fill="none" fill-rule="evenodd"><g id="006---Butter" fill-rule="nonzero"><path id="Shape" d="m59 49v2c-.0032948 1.1032019-.8967981 1.9967052-2 2h-54c-1.10320187-.0032948-1.9967052-.8967981-2-2v-2z" fill="#9d27b0"/><path id="Shape" d="m56 49v2c-.0032948 1.1032019-.8967981 1.9967052-2 2h3c1.1032019-.0032948 1.9967052-.8967981 2-2v-2z" fill="#6a1b9a"/><path id="Shape" d="m57 53-1.54 4.63c-.2740405.8168404-1.0384186 1.3679973-1.9 1.37h-47.12c-.86158136-.0020027-1.62595953-.5531596-1.9-1.37l-1.54-4.63z" fill="#673ab7"/><path id="Shape" d="m54 53-1.54 4.63c-.2740405.8168404-1.0384186 1.3679973-1.9 1.37h3c.8615814-.0020027 1.6259595-.5531596 1.9-1.37l1.54-4.63z" fill="#4527a0"/><path id="Shape" d="m42.79 28.87-.61.79c-.9758636 1.2573152-2.4113001 2.0753846-3.9904237 2.2741816-1.5791235.1987971-3.1725322-.2379688-4.4295763-1.2141816l-1.76-1.37v-1.35c0-.5522847-.4477153-1-1-1h-2.02l-7.85-6.11c-.4207673-.3227378-.6946574-.8006286-.7604315-1.3268211-.065774-.5261924.0820541-1.056798.4104315-1.4731789l1.22-1.58 2.46-3.16 17.55 13.65.6.47c.2106844.1609561.3482524.3994821.3820624.6624491.0338101.2629671-.0389459.5285347-.2020624.7375509z" fill="#7f8e94"/><path id="Shape" d="m42.61 27.47-.6-.47-17.55-13.65-1.131 1.45 15.681 12.2.6.47c.2106844.1609561.3482524.3994821.3820624.6624491.0338101.2629671-.0389459.5285347-.2020624.7375509l-.61.79c-.8176676 1.0514433-1.9628115 1.7999747-3.254 2.127 2.3223589.6032131 4.7809616-.2329634 6.254-2.127l.61-.79c.1631165-.2090162.2358725-.4745838.2020624-.7375509-.03381-.262967-.171378-.501493-.3820624-.6624491z" fill="#545c60"/><path id="Shape" d="m24.46 13.35-2.46 3.16-3.58-2.79 2.46-3.15z" fill="#607d8b"/><path id="Shape" d="m20.88 10.57-2.46 3.15-.61.79c-.1609561.2106844-.3994821.3482524-.6624491.3820624-.2629671.0338101-.5285347-.0389459-.7375509-.2020624l-9.66-7.51c-1.30591511-1.01910042-1.53870134-2.90377356-.52-4.21l1.23-1.58c.3404661-.43210332.96601375-.50806268 1.4-.17z" fill="#9d27b0"/><path id="Shape" d="m55 29v20h-50v-20c.0032948-1.1032019.89679813-1.9967052 2-2h24c.5522847 0 1 .4477153 1 1v1.35l1.76 1.37c1.2570441.9762128 2.8504528 1.4129787 4.4295763 1.2141816 1.5791236-.198797 3.0145601-1.0168664 3.9904237-2.2741816l.61-.79c.1631165-.2090162.2358725-.4745838.2020624-.7375509-.03381-.262967-.171378-.501493-.3820624-.6624491l-.6-.47h10.99c1.1032019.0032948 1.9967052.8967981 2 2z" fill="#ffdc00"/><path id="Shape" d="m53 27h-3c1.1032019.0032948 1.9967052.8967981 2 2v20h3v-20c-.0032948-1.1032019-.8967981-1.9967052-2-2z" fill="#fec108"/><path id="Shape" d="m11 32h-2c-.55228475 0-1-.4477153-1-1s.44771525-1 1-1h2c.5522847 0 1 .4477153 1 1s-.4477153 1-1 1z" fill="#f5f5f5"/><path id="Shape" d="m27 32h-12c-.5522847 0-1-.4477153-1-1s.4477153-1 1-1h12c.5522847 0 1 .4477153 1 1s-.4477153 1-1 1z" fill="#f5f5f5"/><path id="Shape" d="m59 48h-3v-19c0-1.6568542-1.3431458-3-3-3h-10.651l-17.275-13.439h-.006l-3.576-2.785-12.019-9.348c-.41874662-.32576526-.94977089-.47180299-1.47621022-.40597463s-1.00515277.33812826-1.33078978.75697463l-1.228 1.578c-.65175028.83724528-.94415708 1.89913265-.81287722 2.95199716.13127987 1.05286451.67548947 2.01043562 1.51287722 2.66200284l9.651 7.506c.3493322.2735794.7802899.4221612 1.224.422.0842585.0001505.1684371-.0051942.252-.016.5266428-.0638519 1.0057072-.3361621 1.33-.756l2.006 1.56-.611.787c-.496472.6303395-.7171775 1.4345442-.612 2.23.097044.7845205.5066556 1.4966533 1.136 1.975l5.553 4.321h-19.067c-1.65685425 0-3 1.3431458-3 3v19h-3c-.55228475 0-1 .4477153-1 1v2c.00541052 1.3608637.92616009 2.5476168 2.243 2.891l1.357 4.058c.40786258 1.2231399 1.55165191 2.0488744 2.841 2.051h47.118c1.2893481-.0021256 2.4331374-.8278601 2.841-2.051l1.353-4.058c1.318427-.3418558 2.2411122-1.5289866 2.247-2.891v-2c0-.5522847-.4477153-1-1-1zm-41.98-34.1-9.652-7.508c-.41869387-.32578361-.69079868-.80456916-.75643861-1.33100142s.08056347-1.05737594.40643861-1.47599858l1.226-1.578 11.231 8.734zm4.034-1.929 2 1.557-1.229 1.579-2-1.557zm.681 8.126c-.2063621-.1565133-.3405585-.3899141-.372-.647-.0346069-.2661095.0400736-.534887.207-.745l3.066-3.949 17.364 13.503-.608.787c-1.6956429 2.1779726-4.8336774 2.5737486-7.017.885l-1.375-1.07v-.861c0-1.1045695-.8954305-2-2-2h-1.676zm-15.735 8.903c0-.5522847.44771525-1 1-1h24v7c0 .5522847.4477153 1 1 1s1-.4477153 1-1v-3.6l.146.114c3.0566006 2.3659805 7.451487 1.8117551 9.825-1.239l.6-.781c.3288249-.4149074.4766178-.944799.41-1.47v-.02h9.019c.5522847 0 1 .4477153 1 1v18.996h-48zm48.508 28.316c-.1360719.4085428-.5183926.6841037-.949.684h-47.118c-.43060741.0001037-.81292807-.2754572-.949-.684l-1.104-3.316h51.224zm3.492-6.316c0 .5522847-.4477153 1-1 1h-54c-.55228475 0-1-.4477153-1-1v-1h56z" fill="#000"/></g></g></svg>