<svg id="Capa_1" enable-background="new 0 0 512 512" height="512" viewBox="0 0 512 512" width="512" xmlns="http://www.w3.org/2000/svg"><g><g><g><path d="m367.015 188.42c-118.037 77.782-132.624 141.324-327.622 240.413-10.05 5.107-6.36 20.268 4.913 20.2 89.932-.544 298.395-20.837 410.877-187.022z" fill="#fca62f"/><g fill="#f98824"><path d="m326.784 217.224c-16.308 85.247-60.75 154.558-110.291 208.055-40.259 11.404-78.943 17.534-112.135 20.696 14.742-27.506 26.002-51.9 35.16-74.358 88.585-57.803 122.828-104.326 187.266-154.393z"/><path d="m455.181 262.013c-9.713 14.347-20.135 27.608-31.142 39.865-8.804-4.71-17.478-13.213-23.32-28.211-.582-1.482-1.062-2.963-1.484-4.444-11.428 6.713-23.534 11.556-35.48 12.554-3.995.336-7.517-2.807-7.639-6.815-.357-11.986 3.088-24.546 8.458-36.676-1.506-.245-3.044-.554-4.58-.964-16.426-4.338-26.013-12.628-31.587-21.346 11.702-9.038 24.409-18.19 38.611-27.551z"/><path d="m455.181 262.013c-112.479 166.181-320.946 186.477-410.876 187.02-11.272.073-14.965-15.097-4.914-20.206 2.712-1.379 5.397-2.751 8.046-4.12 99.772-4.937 279.234-35.763 381.097-184.938z"/></g></g><g><g><path d="m460.395 270.102c-6.908-6.558-8.01-17.105-1.668-24.212l6.863-7.69c18.648-20.894 16.827-52.949-4.066-71.597-20.894-18.648-52.949-16.827-71.597 4.066l-6.863 7.689c-6.343 7.107-16.947 7.206-24.245 1.085-5.025-4.214-12.673.659-10.724 7.017 3.466 11.304 12.321 24.722 34.33 30.536 1.438.38 2.865.673 4.281.899-5.016 11.31-8.225 23.029-7.89 34.206.112 3.738 3.397 6.67 7.124 6.358 11.143-.933 22.424-5.448 33.093-11.712.385 1.381.837 2.765 1.377 4.151 8.268 21.209 22.603 28.488 34.226 30.651 6.539 1.219 10.515-6.932 5.759-11.447z" fill="#a3e440"/><path d="m454.637 281.553c-5.166-.967-10.866-2.938-16.331-6.69 3.361-2.144 4.483-7.305 1.043-10.576-6.91-6.559-8.011-17.106-1.668-24.205l6.865-7.691c18.648-20.898 16.828-52.95-4.069-71.598-2.62-2.342-5.42-4.357-8.349-6.057-.551-.32-1.107-.632-1.672-.928 7.857.413 15.658 2.645 22.714 6.741 2.93 1.701 5.729 3.715 8.357 6.062 20.89 18.643 22.71 50.696 4.062 71.594l-6.861 7.683c-6.339 7.112-5.239 17.658 1.672 24.218 4.748 4.513.775 12.662-5.763 11.447z" fill="#8dc637"/></g></g><g><path d="m427.971 172.989 22.083 8.048c12.886-26.558 17.321-52.413 18.83-65.77.576-5.096-3.201-9.644-8.317-9.999l-16.587-1.15c-5.719-.397-10.4 4.594-9.526 10.261 3.891 25.233-2.534 47.833-6.483 58.61z" fill="#a3e440"/></g></g><g><g><path d="m205.226 123.049c-63.035 126.527-43.751 188.805-162.65 372.397-6.128 9.462 4.675 20.722 14.39 15.004 77.504-45.62 247.606-167.825 261.456-368.02z" fill="#fb4a59"/><g fill="#f82f40"><path d="m318.422 142.434c-1.198 17.285-3.554 33.985-6.92 50.111-9.979.346-21.749-2.653-34.332-12.691-1.247-.99-2.406-2.029-3.514-3.099-6.514 11.543-14.552 21.809-24.383 28.669-3.287 2.297-7.91 1.346-10.028-2.059-6.326-10.187-9.652-22.779-11.097-35.965-1.426.544-2.91 1.049-4.445 1.465-16.384 4.494-28.837 2.138-38.034-2.604 5.583-13.691 11.978-27.986 19.561-43.212z"/><path d="m318.422 142.434c-13.85 200.188-183.953 322.398-261.457 368.015-9.711 5.722-20.522-5.544-14.394-15.008 1.653-2.554 3.287-5.088 4.89-7.603 83.81-54.358 223.541-171.113 236.747-351.265z"/></g></g><g><g><path d="m326.992 146.812c-9.267-2.204-15.515-10.772-13.597-20.102l2.075-10.096c5.638-27.432-12.029-54.241-39.46-59.879-27.432-5.638-54.241 12.029-59.879 39.46l-2.075 10.096c-1.918 9.33-11.039 14.74-20.424 13.11-6.461-1.122-10.629 6.932-5.752 11.452 8.672 8.036 23.067 15.195 45.02 9.174 1.435-.393 2.815-.856 4.153-1.372 1.34 12.3 4.448 24.046 10.349 33.544 1.974 3.177 6.287 4.063 9.353 1.923 9.169-6.401 16.658-15.969 22.741-26.743 1.026 1.001 2.112 1.971 3.275 2.899 17.798 14.192 33.85 13.291 44.989 9.326 6.266-2.23 5.612-11.275-.768-12.792z" fill="#1ca56f"/><path d="m327.761 159.605c-4.953 1.757-10.872 2.914-17.483 2.413 1.83-3.542.209-8.568-4.407-9.67-9.27-2.204-15.516-10.772-13.595-20.096l2.076-10.098c5.636-27.435-12.029-54.242-39.464-59.879-3.442-.71-6.875-1.047-10.262-1.047-.637 0-1.275.009-1.912.036 7.002-3.588 14.87-5.573 23.028-5.573 3.387 0 6.82.337 10.271 1.047 27.426 5.636 45.091 32.443 39.455 59.879l-2.076 10.089c-1.912 9.333 4.334 17.902 13.604 20.105 6.374 1.521 7.03 10.563.765 12.794z" fill="#158f5e"/></g></g><g><path d="m256.08 75.143h23.504c3.012-29.365-1.674-55.175-4.83-68.242-1.204-4.985-6.31-7.965-11.238-6.547l-15.978 4.599c-5.509 1.586-8.198 7.878-5.437 12.902 12.296 22.375 14 45.81 13.979 57.288z" fill="#1ca56f"/></g></g></g></svg>