<svg height="512" viewBox="0 0 64 64" width="512" xmlns="http://www.w3.org/2000/svg"><g id="Blue"><path d="m36 19a21.534 21.534 0 0 1 25 2v4c-5-3-8.8-4.583-12-5-6.243-.813-12.912 4.024-15 6l-5 3v-6z" fill="#cdeef6"/><g fill="#7cb8eb"><circle cx="31" cy="18" r="5"/><circle cx="24" cy="24" r="5"/><circle cx="15" cy="27" r="6"/><circle cx="9" cy="37" r="6"/><circle cx="25" cy="32" r="5"/><circle cx="21" cy="42" r="7"/><circle cx="35" cy="31" r="5"/><circle cx="32" cy="36" r="6"/><circle cx="11" cy="46" r="5"/></g><g fill="#4f83d1"><path d="m10 46h2v2h-2z"/><path d="m21 44h2v2h-2z"/><path d="m7 37h2v2h-2z"/><path d="m13 28h2v2h-2z"/><path d="m31 37h2v2h-2z"/><path d="m23 23h2v2h-2z"/><path d="m30 17h2v2h-2z"/><path d="m10 46h2v2h-2z"/><path d="m21 44h2v2h-2z"/><path d="m7 37h2v2h-2z"/><path d="m13 28h2v2h-2z"/><path d="m31 37h2v2h-2z"/><path d="m23 23h2v2h-2z"/><path d="m30 17h2v2h-2z"/><path d="m49.088 15a22.672 22.672 0 0 0 -12.127 2.328 6 6 0 0 0 -11.961.672c0 .032.007.064.007.1a5.879 5.879 0 0 0 -6.241 3 6.914 6.914 0 0 0 -3.766-1.1 6.99 6.99 0 0 0 -6.311 10.016 6.985 6.985 0 0 0 -2.975 13.15 6 6 0 1 0 10.707 5.388 7.986 7.986 0 0 0 12.563-6.243 6.99 6.99 0 0 0 10.016-6.311c0-.165-.029-.333-.042-.5a5.987 5.987 0 0 0 -2.418-10.292c2.846-2.1 7.732-4.81 12.33-4.217 3.061.4 6.752 1.948 11.615 4.866a1 1 0 0 0 1.515-.857v-4a1 1 0 0 0 -.356-.766 22.884 22.884 0 0 0 -12.556-5.234zm-18.088-1a4 4 0 0 1 4 4 4.419 4.419 0 0 1 -.087.857 4.017 4.017 0 0 1 -5.154 2.949c-.083-.029-.158-.068-.237-.1a5.932 5.932 0 0 0 -2.413-2.8 4.152 4.152 0 0 1 -.109-.906 4 4 0 0 1 4-4zm-2.564 15.977a6.946 6.946 0 0 0 -3.37 5.145 7.9 7.9 0 0 0 -3.5-1.1 3.978 3.978 0 0 1 .686-4.929 3.989 3.989 0 0 1 5.951.5 4.246 4.246 0 0 1 .233.384zm-4.436-9.977a3.943 3.943 0 0 1 1.777.422.875.875 0 0 0 .083.037 3.986 3.986 0 0 1 1.955 2.309 4.112 4.112 0 0 1 .185 1.232 3.955 3.955 0 0 1 -.822 2.41 6.058 6.058 0 0 0 -2.178-.41 5.962 5.962 0 0 0 -3.009.829 6.981 6.981 0 0 0 -1.675-4.37 4 4 0 0 1 3.684-2.459zm-20 17a5.006 5.006 0 0 1 5-5 4.911 4.911 0 0 1 1.489.224 4.994 4.994 0 0 1 3.135 6.67c-.006.011-.027.061-.041.1a4.878 4.878 0 0 1 -.838 1.27 5.969 5.969 0 0 0 -5.766 1.3 5.025 5.025 0 0 1 -2.979-4.564zm7 13a4 4 0 1 1 4-4 4 4 0 0 1 -4 4zm2.683-18.184a6.98 6.98 0 0 0 -2.3-1.389 4.932 4.932 0 0 1 -1.383-3.427 5.006 5.006 0 0 1 5-5 5.025 5.025 0 0 1 5 5 4.716 4.716 0 0 1 -.068.785 4.967 4.967 0 0 1 -6.249 4.031zm5.738 2.361a7.949 7.949 0 0 0 -3.52 1.687 6.9 6.9 0 0 0 -.588-1.878 6.993 6.993 0 0 0 3.744-1.269 5.9 5.9 0 0 0 .364 1.46zm1.579 13.823a5.957 5.957 0 0 1 -4.022-1.567c.01-.144.022-.287.022-.433a5.977 5.977 0 0 0 -1.979-4.44 6.2 6.2 0 0 1 .424-1.841l.042-.1a6.015 6.015 0 0 1 5.513-3.619 5.924 5.924 0 0 1 4.118 1.651c.029.029.258.257.283.285a5.747 5.747 0 0 1 1.4 2.573 5.673 5.673 0 0 1 .199 1.491 6.006 6.006 0 0 1 -6 6zm11-7a4.94 4.94 0 0 1 -3.366-1.328 7.731 7.731 0 0 0 -1.566-2.856c0-.033-.008-.058-.013-.105a4.216 4.216 0 0 1 -.055-.711 5.016 5.016 0 0 1 3.2-4.668 1.691 1.691 0 0 1 .187-.061 4.734 4.734 0 0 1 1.613-.271 4.969 4.969 0 0 1 4.934 4.225 4.716 4.716 0 0 1 .066.775 5.006 5.006 0 0 1 -5 5zm7-10a4 4 0 0 1 -.618 2.123 6.953 6.953 0 0 0 -6.382-4.123c-.161 0-.312.028-.47.039a3.978 3.978 0 0 1 .543-.76 4.031 4.031 0 0 1 2.927-1.279 4 4 0 0 1 4 4zm21-7.744c-4.383-2.5-7.866-3.854-10.872-4.247-6.564-.86-13.5 4.108-15.736 6.19l-.107.065a5.921 5.921 0 0 0 -2.539 1.525l-1.568.939c-.093-.09-.175-.19-.274-.275a6.025 6.025 0 0 0 1.096-3.453v-.089a5.942 5.942 0 0 0 6.725-4.176 20.521 20.521 0 0 1 23.275 1.739z"/></g></g></svg>