<svg height="480pt" viewBox="0 0 480 480" width="480pt" xmlns="http://www.w3.org/2000/svg"><path d="m456 184h-112v32h80c8.835938 0 16 7.164062 16 16v48c0 8.835938-7.164062 16-16 16h-80v32h104c16.800781 0 24-7.199219 24-16v-112c0-8.835938-7.164062-16-16-16zm0 0" fill="#b5554e"/><path d="m8.503906 424h463c.273438 0 .496094.222656.496094.496094.003906 26.234375-21.261719 47.503906-47.496094 47.503906h-369.007812c-26.230469 0-47.496094-21.265625-47.496094-47.496094 0-.277344.226562-.503906.503906-.503906zm0 0" fill="#b5554e"/><path d="m299.832031 424h-131.832031c-23.808594 0-41.695312-38-45.902344-60l-50.097656-244h336l-57.503906 245.136719c-4.6875 21.457031-27.296875 58.863281-50.664063 58.863281zm0 0" fill="#efa66a"/><path d="m240 176h-128c-4.417969 0-8-3.582031-8-8s3.582031-8 8-8h128c4.417969 0 8 3.582031 8 8s-3.582031 8-8 8zm0 0" fill="#b5554e"/><path d="m304 176h-32c-4.417969 0-8-3.582031-8-8s3.582031-8 8-8h32c4.417969 0 8 3.582031 8 8s-3.582031 8-8 8zm0 0" fill="#b5554e"/><g fill="#fdbd40"><path d="m168 96c-4.417969 0-8-3.582031-8-8 .265625-7.867188 4.320312-15.121094 10.878906-19.472656 4.097656-3.398438 5.121094-4.597656 5.121094-7.199219 0-2.695313-1.246094-4-5.128906-7.199219-6.546875-4.351562-10.59375-11.59375-10.871094-19.449218.265625-7.871094 4.320312-15.125 10.878906-19.480469 3.875-3.199219 5.121094-4.496094 5.121094-7.199219 0-4.417969 3.582031-8 8-8s8 3.582031 8 8c-.265625 7.871094-4.316406 15.132812-10.878906 19.488281-3.875 3.199219-5.121094 4.496094-5.121094 7.199219s1.246094 4 5.121094 7.199219c6.558594 4.355469 10.609375 11.605469 10.878906 19.472656-.273438 7.859375-4.328125 15.097656-10.878906 19.441406-4.097656 3.398438-5.121094 4.597657-5.121094 7.199219 0 4.417969-3.582031 8-8 8zm0 0"/><path d="m232 96c-4.417969 0-8-3.582031-8-8 .265625-7.867188 4.320312-15.121094 10.878906-19.472656 4.097656-3.398438 5.121094-4.597656 5.121094-7.199219 0-2.695313-1.246094-4-5.128906-7.199219-6.546875-4.351562-10.59375-11.59375-10.871094-19.449218.265625-7.871094 4.320312-15.125 10.878906-19.480469 3.875-3.199219 5.121094-4.496094 5.121094-7.199219 0-4.417969 3.582031-8 8-8s8 3.582031 8 8c-.265625 7.871094-4.316406 15.132812-10.878906 19.488281-3.875 3.199219-5.121094 4.496094-5.121094 7.199219s1.246094 4 5.121094 7.199219c6.558594 4.355469 10.609375 11.605469 10.878906 19.472656-.273438 7.859375-4.328125 15.097656-10.878906 19.441406-4.097656 3.398438-5.121094 4.597657-5.121094 7.199219 0 4.417969-3.582031 8-8 8zm0 0"/><path d="m296 96c-4.417969 0-8-3.582031-8-8 .265625-7.867188 4.320312-15.121094 10.878906-19.472656 4.097656-3.398438 5.121094-4.597656 5.121094-7.199219 0-2.695313-1.246094-4-5.128906-7.199219-6.546875-4.351562-10.59375-11.59375-10.871094-19.449218.265625-7.871094 4.320312-15.125 10.878906-19.480469 3.875-3.199219 5.121094-4.496094 5.121094-7.199219 0-4.417969 3.582031-8 8-8s8 3.582031 8 8c-.265625 7.871094-4.316406 15.132812-10.878906 19.488281-3.875 3.199219-5.121094 4.496094-5.121094 7.199219s1.246094 4 5.121094 7.199219c6.558594 4.355469 10.609375 11.605469 10.878906 19.472656-.273438 7.859375-4.328125 15.097656-10.878906 19.441406-4.097656 3.398438-5.121094 4.597657-5.121094 7.199219 0 4.417969-3.582031 8-8 8zm0 0"/></g><path d="m243.832031 228.742188c-21.664062-.796876-43.753906 18.65625-52.433593 48.257812-8.796876 30.136719-.796876 60.671875 17.96875 73.480469 10.082031-19.199219 21.183593-24.289063 30.328124-56.28125 9.367188-32.792969 2.089844-42.71875 4.136719-65.457031zm0 0" fill="#ffd782"/><path d="m253.992188 230.640625c-3.269532-1.144531-6.695313-1.785156-10.160157-1.898437-2.046875 22.738281 5.230469 32.664062-4.136719 65.457031-9.144531 32-20.246093 37.113281-30.328124 56.28125 2.5625 1.761719 5.34375 3.183593 8.273437 4.230469 24.527344 8.65625 52.542969-12.101563 62.582031-46.398438 10.042969-34.296875-1.703125-69.015625-26.230468-77.671875zm0 0" fill="#b5554e"/><path d="m248 168c0-4.417969-3.582031-8-8-8h-128c-4.417969 0-8 3.582031-8 8s3.582031 8 8 8h128c4.417969 0 8-3.582031 8-8zm0 0"/><path d="m304 160h-32c-4.417969 0-8 3.582031-8 8s3.582031 8 8 8h32c4.417969 0 8-3.582031 8-8s-3.582031-8-8-8zm0 0"/><path d="m170.878906 68.527344c-6.558594 4.351562-10.613281 11.605468-10.878906 19.472656 0 4.417969 3.582031 8 8 8s8-3.582031 8-8c0-2.566406 1.023438-3.769531 5.121094-7.199219 6.550781-4.34375 10.605468-11.582031 10.878906-19.441406-.265625-7.871094-4.316406-15.128906-10.878906-19.488281-3.875-3.199219-5.121094-4.496094-5.121094-7.199219s1.246094-4 5.121094-7.199219c6.558594-4.355468 10.609375-11.605468 10.878906-19.472656 0-4.417969-3.582031-8-8-8s-8 3.582031-8 8c0 2.695312-1.246094 4-5.121094 7.199219-6.558594 4.355469-10.613281 11.609375-10.878906 19.480469.265625 7.871093 4.316406 15.128906 10.871094 19.488281 3.882812 3.199219 5.128906 4.496093 5.128906 7.199219 0 2.5625-1.023438 3.761718-5.121094 7.160156zm0 0"/><path d="m234.878906 68.527344c-6.558594 4.351562-10.613281 11.605468-10.878906 19.472656 0 4.417969 3.582031 8 8 8s8-3.582031 8-8c0-2.566406 1.023438-3.769531 5.121094-7.199219 6.550781-4.34375 10.605468-11.582031 10.878906-19.441406-.265625-7.871094-4.316406-15.128906-10.878906-19.488281-3.875-3.199219-5.121094-4.496094-5.121094-7.199219s1.246094-4 5.121094-7.199219c6.558594-4.355468 10.609375-11.605468 10.878906-19.472656 0-4.417969-3.582031-8-8-8s-8 3.582031-8 8c0 2.695312-1.246094 4-5.121094 7.199219-6.558594 4.355469-10.613281 11.609375-10.878906 19.480469.265625 7.871093 4.316406 15.128906 10.871094 19.488281 3.882812 3.199219 5.128906 4.496093 5.128906 7.199219 0 2.5625-1.023438 3.761718-5.121094 7.160156zm0 0"/><path d="m298.878906 68.527344c-6.558594 4.351562-10.613281 11.605468-10.878906 19.472656 0 4.417969 3.582031 8 8 8s8-3.582031 8-8c0-2.566406 1.023438-3.769531 5.121094-7.199219 6.550781-4.34375 10.605468-11.582031 10.878906-19.441406-.265625-7.871094-4.316406-15.128906-10.878906-19.488281-3.875-3.199219-5.121094-4.496094-5.121094-7.199219s1.246094-4 5.121094-7.199219c6.558594-4.355468 10.609375-11.605468 10.878906-19.472656 0-4.417969-3.582031-8-8-8s-8 3.582031-8 8c0 2.695312-1.246094 4-5.121094 7.199219-6.558594 4.355469-10.613281 11.609375-10.878906 19.480469.265625 7.871093 4.316406 15.128906 10.871094 19.488281 3.882812 3.199219 5.128906 4.496093 5.128906 7.199219 0 2.5625-1.023438 3.761718-5.121094 7.160156zm0 0"/><path d="m256.65625 223.097656c-4.03125-1.410156-8.253906-2.199218-12.519531-2.34375-26.113281-.929687-50.808594 21.230469-60.410157 54-9.597656 32.765625-.726562 67.414063 21.128907 82.335938 3.136719 2.152344 6.539062 3.886718 10.121093 5.167968 4.550782 1.613282 9.34375 2.4375 14.175782 2.4375 7.578125-.074218 15.027344-1.957031 21.726562-5.496093 18.421875-10.5 31.789063-28.035157 37.023438-48.582031 11.203125-38.234376-2.824219-77.488282-31.246094-87.519532zm-57.601562 56.148438c6.328124-21.597656 20.855468-37.765625 36.371093-41.597656v1.128906c0 1.488281.0625 2.925781.125 4.335937 0 .621094.050781 1.269531.082031 1.886719.101563 1.878906.230469 3.726562.359376 5.535156 1.527343 13.949219.167968 28.0625-3.992188 41.464844-3.523438 13.585938-9.816406 26.296875-18.480469 37.335938-.933593 1.304687-1.894531 2.617187-2.847656 4-.320313.449218-.640625.9375-.96875 1.390624-.671875.96875-1.335937 1.9375-2.015625 2.960938l-.261719.390625c-11.355469-13.222656-14.9375-36.335937-8.347656-58.832031zm73.472656 26.859375c-4.109375 16.28125-14.527344 30.257812-28.960938 38.847656-7.027344 3.925781-15.371094 4.757813-23.039062 2.292969l.28125-.429688c1.824218-2.800781 3.695312-5.402344 5.597656-8.074218 9.78125-12.542969 16.898438-26.953126 20.921875-42.34375 4.71875-15.203126 6.292969-31.210938 4.625-47.046876-.257813-3.519531-.472656-6.953124-.527344-10.582031v-.53125c20.148438 7.234375 29.796875 38.25 21.125 67.867188zm0 0"/><path d="m456 176h-52.921875l12.714844-54.167969c.558593-2.378906 0-4.886719-1.519531-6.800781-1.515626-1.917969-3.828126-3.03125-6.273438-3.03125h-336c-2.402344 0-4.675781 1.082031-6.191406 2.941406-1.519532 1.863282-2.121094 4.304688-1.640625 6.660156l50.070312 243.910157c3.898438 18.480469 12.097657 35.777343 23.9375 50.488281h-129.679687c-4.609375.195312-8.300782 3.886719-8.496094 8.496094.03125 30.636718 24.859375 55.46875 55.496094 55.503906h369c30.640625-.03125 55.472656-24.863281 55.503906-55.503906-.195312-4.613282-3.890625-8.304688-8.503906-8.496094h-140.398438c13.015625-13.820312 22.363282-30.679688 27.199219-49.039062l7.253906-30.960938h82.449219c23.59375 0 32-12.398438 32-24v-112c0-13.253906-10.746094-24-24-24zm-64.175781 48h32.175781c4.417969 0 8 3.582031 8 8v48c0 4.417969-3.582031 8-8 8h-47.199219zm32.671875 240h-369c-18.914063-.023438-35.167969-13.433594-38.785156-32h446.578124c-3.621093 18.570312-19.875 31.976562-38.792968 32zm-81.816406-100.574219c-4.535157 20.757813-25.535157 52.574219-42.847657 52.574219h-131.832031c-16.976562 0-33.871094-31.679688-38.0625-53.601562l-48.128906-234.398438h316.09375zm121.320312-51.425781c0 7.199219-11.199219 8-16 8h-78.695312l3.75-16h50.945312c13.253906 0 24-10.746094 24-24v-48c0-13.253906-10.746094-24-24-24h-28.425781l3.753906-16h56.671875c4.417969 0 8 3.582031 8 8zm0 0"/></svg>