<?xml version="1.0" encoding="iso-8859-1"?>
<!-- Generator: Adobe Illustrator 19.0.0, SVG Export Plug-In . SVG Version: 6.00 Build 0)  -->
<svg version="1.1" id="Capa_1" xmlns="http://www.w3.org/2000/svg" xmlns:xlink="http://www.w3.org/1999/xlink" x="0px" y="0px"
	 viewBox="0 0 496 496" style="enable-background:new 0 0 496 496;" xml:space="preserve">
<path style="fill:#A4895A;" d="M368,74.4h-70.4c-6.4,0-12.8-2.4-16.8-7.2l-1.6-1.6c-4.8-4.8-10.4-7.2-16.8-7.2h-44
	c-6.4,0-12.8-2.4-16.8-7.2l-1.6-1.6c-5.6-4.8-11.2-7.2-17.6-7.2H104v-32h86.4c6.4,0,12.8,2.4,16.8,7.2l1.6,1.6
	c4.8,4.8,10.4,7.2,16.8,7.2h44c6.4,0,12.8,2.4,16.8,7.2l1.6,1.6c5.6,4.8,11.2,7.2,17.6,7.2H368V74.4z"/>
<g>
	<circle style="fill:#708C32;" cx="384" cy="210.4" r="104"/>
	<circle style="fill:#708C32;" cx="112" cy="210.4" r="104"/>
</g>
<circle style="fill:#7C8C3F;" cx="248" cy="330.4" r="120"/>
<path d="M248,458.4c-70.4,0-128-57.6-128-128s57.6-128,128-128s128,57.6,128,128S318.4,458.4,248,458.4z M248,218.4
	c-61.6,0-112,50.4-112,112s50.4,112,112,112s112-50.4,112-112S309.6,218.4,248,218.4z"/>
<path d="M384,322.4c-6.4,0-12.8-0.8-18.4-1.6l2.4-16c52,8.8,101.6-26.4,110.4-78.4S452,124.8,400,116s-101.6,26.4-110.4,78.4
	c-0.8,5.6-1.6,10.4-1.6,16c0,1.6,0,2.4,0,4l-16,0.8c0-1.6,0-3.2,0-4.8c0-61.6,50.4-112,112-112s112,50.4,112,112
	S445.6,322.4,384,322.4z"/>
<path d="M112,322.4c-61.6,0-112-50.4-112-112s50.4-112,112-112s112,50.4,112,112c0,1.6,0,3.2,0,4.8l-16-0.8c0-1.6,0-2.4,0-4
	c0-52.8-43.2-96-96-96s-96,43.2-96,96s43.2,96,96,96c5.6,0,10.4-0.8,16-1.6l2.4,16C124.8,321.6,118.4,322.4,112,322.4z"/>
<path d="M271.2,493.6l-14.4-7.2l6.4-12.8l-7.2-20.8l15.2-4.8l8,24c0.8,2.4,0.8,4-0.8,6.4L271.2,493.6z"/>
<path d="M224.8,493.6l-8-16c-0.8-1.6-0.8-4-0.8-6.4l8-24l15.2,4.8l-7.2,20.8l6.4,12.8L224.8,493.6z"/>
<path d="M240,394.4h-16v-9.6c0-6.4,2.4-12.8,7.2-16.8l6.4-6.4c1.6-1.6,2.4-3.2,2.4-5.6v-2.4c0-6.4,2.4-12.8,7.2-16.8l6.4-6.4
	c1.6-1.6,2.4-3.2,2.4-5.6v-2.4c0-2.4-0.8-4-2.4-5.6l-6.4-6.4c-4.8-6.4-7.2-12-7.2-18.4v-2.4c0-2.4-0.8-4-2.4-5.6l-6.4-6.4
	c-4.8-5.6-7.2-11.2-7.2-17.6v-2.4c0-6.4,2.4-12.8,7.2-16.8l6.4-6.4c1.6-1.6,2.4-3.2,2.4-5.6v-18.4h16V228c0,6.4-2.4,12.8-7.2,16.8
	l-6.4,6.4c-1.6,1.6-2.4,3.2-2.4,5.6v2.4c0,2.4,0.8,4,2.4,5.6l6.4,6.4c4.8,4.8,7.2,10.4,7.2,16.8v2.4c0,2.4,0.8,4,2.4,5.6l6.4,6.4
	c4.8,4.8,7.2,10.4,7.2,16.8v2.4c0,6.4-2.4,12.8-7.2,16.8l-6.4,6.4c-1.6,1.6-2.4,3.2-2.4,5.6v2.4c0,6.4-2.4,12.8-7.2,16.8l-6.4,6.4
	c-1.6,1.6-2.4,3.2-2.4,5.6V394.4z"/>
<path d="M320,378.4h-16v-9.6c0-2.4-0.8-4-2.4-5.6l-6.4-6.4c-4.8-4.8-7.2-10.4-7.2-16.8v-2.4c0-6.4,2.4-12.8,7.2-16.8l6.4-6.4
	c1.6-1.6,2.4-3.2,2.4-5.6v-2.4c0-2.4-0.8-4-2.4-5.6l-6.4-6.4c-4.8-6.4-7.2-12-7.2-18.4v-2.4c0-2.4-0.8-4-2.4-5.6l-6.4-6.4
	c-4.8-5.6-7.2-11.2-7.2-17.6v-2.4c0-2.4-0.8-4-2.4-5.6l-19.2-19.2l11.2-11.2l19.2,19.2c4.8,4.8,7.2,10.4,7.2,16.8v2.4
	c0,2.4,0.8,4,2.4,5.6l6.4,6.4c4.8,4.8,7.2,10.4,7.2,16.8v2.4c0,2.4,0.8,4,2.4,5.6l6.4,6.4c4.8,4.8,7.2,10.4,7.2,16.8v2.4
	c0,6.4-2.4,12.8-7.2,16.8l-6.4,6.4c-1.6,1.6-2.4,3.2-2.4,5.6v2.4c0,2.4,0.8,4,2.4,5.6l6.4,6.4c4.8,4.8,7.2,10.4,7.2,16.8L320,378.4
	L320,378.4z"/>
<path d="M189.6,384l-11.2-11.2l11.2-11.2c1.6-1.6,2.4-3.2,2.4-5.6v-2.4c0-2.4-0.8-4-2.4-5.6l-6.4-6.4c-4.8-5.6-7.2-11.2-7.2-17.6
	v-2.4c0-6.4,2.4-12.8,7.2-16.8l6.4-6.4c1.6-1.6,2.4-3.2,2.4-5.6v-2.4c0-6.4,2.4-12.8,7.2-16.8l6.4-6.4c4.8-4.8,10.4-7.2,16.8-7.2
	h9.6v16h-9.6c-2.4,0-4,0.8-5.6,2.4l-6.4,6.4c-1.6,1.6-2.4,3.2-2.4,5.6v2.4c0,6.4-2.4,12.8-7.2,16.8l-6.4,6.4
	c-1.6,1.6-2.4,3.2-2.4,5.6v2.4c0,2.4,0.8,4,2.4,5.6l6.4,6.4c4.8,4.8,7.2,10.4,7.2,16.8v2.4c0,6.4-2.4,12.8-7.2,16.8L189.6,384z"/>
<path d="M120,274.4h-16v-9.6c0-6.4,2.4-12.8,7.2-16.8l6.4-6.4c1.6-1.6,2.4-3.2,2.4-5.6v-2.4c0-2.4-0.8-4-2.4-5.6l-6.4-6.4
	c-4.8-5.6-7.2-11.2-7.2-17.6v-2.4c0-2.4-0.8-4-2.4-5.6l-6.4-6.4C90.4,184,88,178.4,88,172v-2.4c0-6.4,2.4-12.8,7.2-16.8l6.4-6.4
	c1.6-1.6,2.4-3.2,2.4-5.6v-34.4h16V140c0,6.4-2.4,12.8-7.2,16.8l-6.4,6.4c-1.6,1.6-2.4,3.2-2.4,5.6v2.4c0,2.4,0.8,4,2.4,5.6l6.4,6.4
	c4.8,4.8,7.2,10.4,7.2,16.8v2.4c0,2.4,0.8,4,2.4,5.6l6.4,6.4c4.8,4.8,7.2,10.4,7.2,16.8v2.4c0,6.4-2.4,12.8-7.2,16.8l-6.4,6.4
	c-1.6,1.6-2.4,3.2-2.4,5.6L120,274.4z"/>
<path d="M72,242.4H56v-9.6c0-2.4-0.8-4-2.4-5.6l-6.4-6.4C42.4,216,40,210.4,40,204v-2.4c0-6.4,2.4-12.8,7.2-16.8l6.4-6.4
	c1.6-2.4,2.4-4.8,2.4-6.4v-2.4c0-6.4,2.4-12.8,7.2-16.8l14.4-14.4c4.8-4.8,10.4-7.2,16.8-7.2H112v16H94.4c-2.4,0-4,0.8-5.6,2.4
	L74.4,164c-1.6,1.6-2.4,3.2-2.4,5.6v2.4c0,6.4-2.4,12.8-7.2,16.8l-6.4,6.4c-1.6,1.6-2.4,4-2.4,5.6v2.4c0,2.4,0.8,4,2.4,5.6l6.4,6.4
	c4.8,5.6,7.2,11.2,7.2,17.6V242.4z"/>
<path d="M168,210.4h-16v-9.6c0-2.4-0.8-4-2.4-5.6l-6.4-6.4c-4.8-4.8-7.2-10.4-7.2-16.8v-2.4c0-2.4-0.8-4-2.4-5.6l-27.2-27.2
	l11.2-11.2l27.2,27.2c4.8,4.8,7.2,10.4,7.2,16.8v2.4c0,2.4,0.8,4,2.4,5.6l6.4,6.4c4.8,4.8,7.2,10.4,7.2,16.8L168,210.4L168,210.4z"
	/>
<path d="M392,274.4h-16v-9.6c0-6.4,2.4-12.8,7.2-16.8l6.4-6.4c1.6-1.6,2.4-3.2,2.4-5.6v-2.4c0-2.4-0.8-4-2.4-5.6l-6.4-6.4
	c-4.8-5.6-7.2-11.2-7.2-17.6v-2.4c0-2.4-0.8-4-2.4-5.6l-6.4-6.4c-4.8-5.6-7.2-11.2-7.2-17.6v-2.4c0-6.4,2.4-12.8,7.2-16.8l6.4-6.4
	c1.6-1.6,2.4-3.2,2.4-5.6v-34.4h16V140c0,6.4-2.4,12.8-7.2,16.8l-6.4,6.4c-1.6,1.6-2.4,3.2-2.4,5.6v2.4c0,2.4,0.8,4,2.4,5.6l6.4,6.4
	c4.8,4.8,7.2,10.4,7.2,16.8v2.4c0,2.4,0.8,4,2.4,5.6l6.4,6.4c4.8,4.8,7.2,10.4,7.2,16.8v2.4c0,6.4-2.4,12.8-7.2,16.8l-6.4,6.4
	c-1.6,1.6-2.4,3.2-2.4,5.6V274.4z"/>
<path d="M344,250.4h-16v-17.6c0-2.4-0.8-4-2.4-5.6l-6.4-6.4c-4.8-4.8-7.2-10.4-7.2-16.8v-2.4c0-6.4,2.4-12.8,7.2-16.8l6.4-6.4
	c1.6-1.6,2.4-3.2,2.4-5.6v-2.4c0-6.4,2.4-12.8,7.2-16.8l14.4-14.4c4.8-4.8,10.4-7.2,16.8-7.2H384v16h-17.6c-2.4,0-4,0.8-5.6,2.4
	l-14.4,14.4c-1.6,1.6-2.4,3.2-2.4,5.6v2.4c0,6.4-2.4,12.8-7.2,16.8l-6.4,6.4c-1.6,1.6-2.4,3.2-2.4,5.6v2.4c0,2.4,0.8,4,2.4,5.6
	l6.4,6.4c4.8,4.8,7.2,10.4,7.2,16.8V250.4z"/>
<path d="M440,210.4h-16v-9.6c0-2.4-0.8-4-2.4-5.6l-6.4-6.4c-4.8-4.8-7.2-10.4-7.2-16.8v-2.4c0-2.4-0.8-4-2.4-5.6l-27.2-27.2
	l11.2-11.2l27.2,27.2c4.8,4.8,7.2,10.4,7.2,16.8v2.4c0,2.4,0.8,4,2.4,5.6l6.4,6.4c4.8,4.8,7.2,10.4,7.2,16.8L440,210.4L440,210.4z"
	/>
<path d="M256,450.4h-16v-17.6c0-6.4,2.4-12.8,7.2-16.8l6.4-6.4c1.6-1.6,2.4-3.2,2.4-5.6v-9.6h16v9.6c0,6.4-2.4,12.8-7.2,16.8
	l-6.4,6.4c-1.6,1.6-2.4,3.2-2.4,5.6V450.4z"/>
<path d="M392,106.4h-16v-24c0-13.6,10.4-24,24-24c4.8,0,8-3.2,8-8c0-13.6,10.4-24,24-24h8v16h-8c-4.8,0-8,3.2-8,8
	c0,13.6-10.4,24-24,24c-4.8,0-8,3.2-8,8V106.4z"/>
<circle style="fill:#7C8C3F;" cx="464" cy="34.4" r="24"/>
<path d="M464,66.4c-17.6,0-32-14.4-32-32s14.4-32,32-32s32,14.4,32,32S481.6,66.4,464,66.4z M464,18.4c-8.8,0-16,7.2-16,16
	s7.2,16,16,16s16-7.2,16-16S472.8,18.4,464,18.4z"/>
<path d="M120,106.4h-16v-24c0-4.8-3.2-8-8-8c-13.6,0-24-10.4-24-24c0-4.8-3.2-8-8-8h-8v-16h8c13.6,0,24,10.4,24,24c0,4.8,3.2,8,8,8
	c13.6,0,24,10.4,24,24V106.4z"/>
<circle style="fill:#7C8C3F;" cx="32" cy="34.4" r="24"/>
<path d="M32,66.4c-17.6,0-32-14.4-32-32s14.4-32,32-32s32,14.4,32,32S49.6,66.4,32,66.4z M32,18.4c-8.8,0-16,7.2-16,16s7.2,16,16,16
	s16-7.2,16-16S40.8,18.4,32,18.4z"/>
<path d="M117.6,80l-11.2-11.2l11.2-11.2c1.6-1.6,2.4-4,2.4-5.6v-3.2c0-6.4,2.4-12.8,7.2-16.8l6.4-6.4c1.6-1.6,2.4-4,2.4-5.6v-9.6h16
	V20c0,6.4-2.4,12.8-7.2,16.8l-6.4,6.4c-1.6,1.6-2.4,4-2.4,5.6v2.4c0,6.4-2.4,12.8-7.2,16.8L117.6,80z"/>
<path d="M368,50.4h-62.4c-8.8,0-16.8-3.2-22.4-9.6l-1.6-1.6c-3.2-3.2-7.2-4.8-11.2-4.8h-44c-8.8,0-16.8-3.2-22.4-9.6l-1.6-1.6
	c-4-3.2-8-4.8-12-4.8H104v-16h86.4c8.8,0,16.8,3.2,22.4,9.6l1.6,1.6c3.2,3.2,7.2,4.8,11.2,4.8h44c8.8,0,16.8,3.2,22.4,9.6l1.6,1.6
	c4,3.2,8,4.8,12,4.8H368V50.4z"/>
<path d="M378.4,80l-11.2-11.2C362.4,64,360,58.4,360,52v-3.2c0-2.4-0.8-4-2.4-5.6l-6.4-6.4C346.4,32,344,26.4,344,20V2.4h16V20
	c0,2.4,0.8,4,2.4,5.6l6.4,6.4c4.8,4.8,7.2,10.4,7.2,16.8v2.4c0,2.4,0.8,4,2.4,5.6L389.6,68L378.4,80z"/>
<path d="M384,82.4h-86.4c-8.8,0-16.8-3.2-22.4-9.6l-1.6-1.6c-3.2-3.2-7.2-4.8-11.2-4.8h-44c-8.8,0-16.8-3.2-22.4-9.6l-1.6-1.6
	c-4-3.2-8-4.8-12-4.8H128v-16h54.4c8.8,0,16.8,3.2,22.4,9.6l1.6,1.6c3.2,3.2,7.2,4.8,11.2,4.8h44c8.8,0,16.8,3.2,22.4,9.6l1.6,1.6
	c4,3.2,8,4.8,12,4.8H384V82.4z"/>
<rect x="328" y="42.4" width="16" height="32"/>
<rect x="296" y="42.4" width="16" height="32"/>
<rect x="168" y="10.4" width="16" height="32"/>
<rect x="232" y="26.4" width="16" height="32"/>
<path d="M256,210.4h-16V184c0-10.4,4-20.8,12-28l1.6-1.6c1.6-1.6,2.4-3.2,2.4-5.6v-2.4c0-2.4-0.8-4-2.4-5.6l-1.6-1.6
	c-7.2-7.2-12-17.6-12-28v-5.6c0-10.4,4-20.8,12-28l14.4-14.4l11.2,11.2l-14.4,14.4c-4.8,4.8-7.2,10.4-7.2,16.8v5.6
	c0,6.4,2.4,12.8,7.2,16.8l1.6,1.6c4.8,4.8,7.2,10.4,7.2,16.8v2.4c0,6.4-2.4,12.8-7.2,16.8l-1.6,1.6c-4.8,4.8-7.2,10.4-7.2,16.8
	V210.4z"/>
<g>
</g>
<g>
</g>
<g>
</g>
<g>
</g>
<g>
</g>
<g>
</g>
<g>
</g>
<g>
</g>
<g>
</g>
<g>
</g>
<g>
</g>
<g>
</g>
<g>
</g>
<g>
</g>
<g>
</g>
</svg>
