<?xml version="1.0" encoding="iso-8859-1"?>
<!-- Generator: Adobe Illustrator 19.0.0, SVG Export Plug-In . SVG Version: 6.00 Build 0)  -->
<svg version="1.1" id="Capa_1" xmlns="http://www.w3.org/2000/svg" xmlns:xlink="http://www.w3.org/1999/xlink" x="0px" y="0px"
	 viewBox="0 0 512 512" style="enable-background:new 0 0 512 512;" xml:space="preserve">
<g>
	<path style="fill:#24AE5F;" d="M25.6,221.867h-8.533c-2.27-0.023-4.454,0.869-6.059,2.474c-1.605,1.605-2.497,3.789-2.474,6.059
		v51.2c0,4.713,3.821,8.533,8.533,8.533s8.533-3.821,8.533-8.533v-42.667l14.592,14.592c1.594,1.57,3.736,2.457,5.973,2.475H153.6
		v-34.134L25.6,221.867z"/>
	<path style="fill:#BDC3C7;" d="M290.133,119.467c14.138,0,25.6,11.462,25.6,25.6v17.067h-51.2v-17.067
		C264.533,130.928,275.995,119.467,290.133,119.467z"/>
	<g>
		<path style="fill:#24AE5F;" d="M384,221.867v-59.733c0-4.713-3.821-8.533-8.533-8.533H204.8c-4.713,0-8.533,3.821-8.533,8.533
			v59.733H384z"/>
		<path style="fill:#24AE5F;" d="M460.8,366.933c-2.998,0.002-5.778-1.569-7.322-4.139l-25.6-42.667
			c-1.637-2.616-1.734-5.911-0.255-8.618s4.305-4.406,7.39-4.441c3.085-0.035,5.949,1.597,7.49,4.27l25.6,42.667
			c1.583,2.634,1.627,5.917,0.115,8.592C466.707,365.274,463.873,366.93,460.8,366.933z"/>
	</g>
	<g>
		<path style="fill:#4FBA6F;" d="M494.933,392.533h-42.667v-36.13c0.002-3.072,1.656-5.906,4.33-7.419
			c2.674-1.513,5.954-1.473,8.59,0.106l25.6,15.36c2.571,1.54,4.145,4.316,4.147,7.313V392.533z"/>
		<path style="fill:#4FBA6F;" d="M443.733,196.267v119.467c0,4.713-3.821,8.533-8.533,8.533H384L315.733,358.4h-76.8l-76.8-25.6
			l-29.133-29.133c-3.201-3.2-5-7.54-5.001-12.066v-78.268c0-9.426,7.641-17.067,17.067-17.067H443.733z"/>
	</g>
	<polygon style="fill:#24AE5F;" points="384,324.267 315.733,358.4 238.933,358.4 162.133,332.8 153.6,324.267 	"/>
	<g>
		<path style="fill:#71C285;" d="M324.267,238.933c0,4.713-3.821,8.533-8.533,8.533H128V230.4h187.733
			C320.446,230.4,324.267,234.221,324.267,238.933z"/>
		<path style="fill:#71C285;" d="M392.533,247.467h-42.667c-4.713,0-8.533-3.821-8.533-8.533c0-4.713,3.821-8.533,8.533-8.533
			h42.667c4.713,0,8.533,3.821,8.533,8.533C401.067,243.646,397.246,247.467,392.533,247.467z"/>
	</g>
	<circle style="fill:#F29C1F;" cx="93.867" cy="93.867" r="42.667"/>
	<g>
		<path style="fill:#F0C419;" d="M93.867,0c-4.713,0-8.533,3.821-8.533,8.533v8.533c0,4.713,3.821,8.533,8.533,8.533
			c4.713,0,8.533-3.821,8.533-8.533V8.533C102.4,3.821,98.579,0,93.867,0z"/>
		<path style="fill:#F0C419;" d="M39.561,27.494c-3.348-3.234-8.671-3.188-11.962,0.104s-3.338,8.614-0.104,11.962l6.033,6.033
			c2.143,2.218,5.315,3.108,8.299,2.327c2.984-0.781,5.313-3.111,6.094-6.094c0.781-2.984-0.109-6.156-2.327-8.299L39.561,27.494z"
			/>
		<path style="fill:#F0C419;" d="M17.067,85.333H8.533C3.821,85.333,0,89.154,0,93.867c0,4.713,3.821,8.533,8.533,8.533h8.533
			c4.713,0,8.533-3.821,8.533-8.533C25.6,89.154,21.779,85.333,17.067,85.333z"/>
		<path style="fill:#F0C419;" d="M33.527,142.14l-6.033,6.033c-2.218,2.143-3.108,5.315-2.327,8.299
			c0.781,2.983,3.111,5.313,6.094,6.094c2.984,0.781,6.156-0.109,8.299-2.327l6.033-6.033c2.218-2.143,3.108-5.315,2.327-8.299
			c-0.781-2.984-3.111-5.313-6.094-6.094C38.843,139.032,35.67,139.921,33.527,142.14z"/>
		<path style="fill:#F0C419;" d="M93.867,162.133c-4.713,0-8.533,3.821-8.533,8.533v8.533c0,4.713,3.821,8.533,8.533,8.533
			c4.713,0,8.533-3.82,8.533-8.533v-8.533C102.4,165.954,98.579,162.133,93.867,162.133z"/>
		<path style="fill:#F0C419;" d="M154.206,142.14c-3.348-3.234-8.671-3.188-11.962,0.104c-3.292,3.292-3.338,8.614-0.104,11.962
			l6.033,6.033c3.348,3.234,8.671,3.188,11.962-0.104s3.338-8.614,0.104-11.962L154.206,142.14z"/>
		<path style="fill:#F0C419;" d="M179.2,85.333h-8.533c-4.713,0-8.533,3.821-8.533,8.533c0,4.713,3.821,8.533,8.533,8.533h8.533
			c4.713,0,8.533-3.821,8.533-8.533C187.733,89.154,183.913,85.333,179.2,85.333z"/>
		<path style="fill:#F0C419;" d="M148.173,48.094c2.263,0,4.433-0.9,6.033-2.5l6.033-6.033c3.234-3.348,3.188-8.671-0.104-11.962
			s-8.614-3.338-11.962-0.104l-6.033,6.033c-2.44,2.44-3.169,6.11-1.849,9.298C141.611,46.014,144.722,48.093,148.173,48.094z"/>
	</g>
	<path style="fill:#B0D3F0;" d="M392.533,196.267v68.267c0,4.713,3.82,8.533,8.533,8.533h45.047
		c3.675,0.001,6.937-2.351,8.098-5.837l23.654-70.963H392.533z"/>
	<path style="fill:#547580;" d="M503.467,187.733c0,4.713-3.821,8.533-8.533,8.533H384V179.2h110.933
		C499.646,179.2,503.467,183.021,503.467,187.733z"/>
	<circle style="fill:#5E5F62;" cx="358.4" cy="358.4" r="42.667"/>
	<circle style="fill:#FF5364;" cx="358.4" cy="358.4" r="17.067"/>
	<circle style="fill:#5E5F62;" cx="196.267" cy="358.4" r="42.667"/>
	<circle style="fill:#FF5364;" cx="196.267" cy="358.4" r="17.067"/>
	<rect x="8.533" y="401.067" style="fill:#B19046;" width="494.933" height="102.4"/>
	<g>
		<path style="fill:#E4C05C;" d="M8.533,409.6h494.933c4.713,0,8.533-3.821,8.533-8.533s-3.82-8.533-8.533-8.533H8.533
			c-4.713,0-8.533,3.82-8.533,8.533S3.821,409.6,8.533,409.6z"/>
		<path style="fill:#E4C05C;" d="M503.467,494.933H8.533c-4.713,0-8.533,3.821-8.533,8.533C0,508.18,3.821,512,8.533,512h494.933
			c4.713,0,8.533-3.82,8.533-8.533C512,498.754,508.18,494.933,503.467,494.933z"/>
		<path style="fill:#E4C05C;" d="M503.467,426.667H409.6c-4.713,0-8.533,3.82-8.533,8.533s3.821,8.533,8.533,8.533h93.867
			c4.713,0,8.533-3.821,8.533-8.533S508.18,426.667,503.467,426.667z"/>
		<path style="fill:#E4C05C;" d="M503.467,460.8H409.6c-4.713,0-8.533,3.821-8.533,8.533c0,4.713,3.821,8.533,8.533,8.533h93.867
			c4.713,0,8.533-3.821,8.533-8.533C512,464.621,508.18,460.8,503.467,460.8z"/>
		<path style="fill:#E4C05C;" d="M8.533,443.733h366.933c4.713,0,8.533-3.821,8.533-8.533s-3.821-8.533-8.533-8.533H8.533
			c-4.713,0-8.533,3.82-8.533,8.533S3.821,443.733,8.533,443.733z"/>
		<path style="fill:#E4C05C;" d="M8.533,477.867H102.4c4.713,0,8.533-3.821,8.533-8.533c0-4.713-3.821-8.533-8.533-8.533H8.533
			C3.821,460.8,0,464.621,0,469.333C0,474.046,3.821,477.867,8.533,477.867z"/>
		<path style="fill:#E4C05C;" d="M375.467,460.8H136.533c-4.713,0-8.533,3.821-8.533,8.533c0,4.713,3.821,8.533,8.533,8.533h238.933
			c4.713,0,8.533-3.821,8.533-8.533C384,464.621,380.18,460.8,375.467,460.8z"/>
	</g>
</g>
<g>
</g>
<g>
</g>
<g>
</g>
<g>
</g>
<g>
</g>
<g>
</g>
<g>
</g>
<g>
</g>
<g>
</g>
<g>
</g>
<g>
</g>
<g>
</g>
<g>
</g>
<g>
</g>
<g>
</g>
</svg>
