<svg id="Capa_1" enable-background="new 0 0 512 512" height="512" viewBox="0 0 512 512" width="512" xmlns="http://www.w3.org/2000/svg"><g><g><path clip-rule="evenodd" d="m372.536 498.568v-42.593l-121.704-44.957-126.193 44.957v42.593c0 3.231 2.635 5.866 5.866 5.866h236.138c3.229 0 5.893-2.635 5.893-5.866z" fill="#e29d7b" fill-rule="evenodd"/></g><g><path clip-rule="evenodd" d="m193.13 236.551c60.416-34.148 67.472-78.667 65.318-145.093-.255-8.445.255-12.951-6.093-7.396-31.908 27.998-38.993 31.937-78.042 45.682-25.589 9.012-44.745 23.011-55.655 40.637 16.237 24.598 1.133 65.348 31.908 80.028z" fill="#95d6a4" fill-rule="evenodd"/></g><g><path clip-rule="evenodd" d="m406.088 77.147-118.962 159.404c-19.61 26.27-6.659 65.462 22.528 80.424 29.188 14.934 83.086-7.34 92.948-38.625l55.173-174.735c5.753-14.906 1.587-31.796-12.61-39.079-14.225-7.282-30.378-.765-39.077 12.611z" fill="#e0dfe1" fill-rule="evenodd"/></g><g><path clip-rule="evenodd" d="m415.808 236.551 37.236-118.001 4.732-14.934c5.753-14.906 1.587-31.796-12.61-39.079-9.606-4.903-20.063-3.542-28.536 1.955 6.688 8.53 7.878 20.687 3.599 31.711l-3.911 12.384-39.758 125.964-11.505 36.415c-5.016 15.898-21.452 29.5-40.211 37.038-5.979 2.38-12.185 4.166-18.334 5.214 1.02.623 2.069 1.19 3.145 1.757 17.371 8.898 43.555 4.591 63.958-6.971 13.829-7.85 24.994-19.015 28.989-31.654l12.95-41.006z" fill="#d3cfd2" fill-rule="evenodd"/></g><g><path clip-rule="evenodd" d="m118.659 170.381c-8.246-6.036-18.136-11.109-29.471-15.104-34.6-12.186-40.835-15.643-69.201-40.552-5.894-5.158-4.874-5.498-5.101 2.465-1.559 50.301 2.919 90.088 38.284 119.361l50.158 16.89 45.85-16.89-1.814-18.448-.085-.793c-1.869-18.733-11.929-34.772-28.62-46.929z" fill="#b3e59f" fill-rule="evenodd"/></g><g><path clip-rule="evenodd" d="m496.995 85.224c6.206-14.453 5.838-30.237 0-43.84-4.931-11.562-13.772-21.509-25.816-27.658-27.374-14.027-60.954-3.202-74.953 24.173-8.671 16.918-7.85 36.216.51 51.774 5.157 9.635 13.205 17.853 23.662 23.209s21.82 7.085 32.645 5.668c17.541-2.324 33.665-12.922 42.336-29.84.596-1.163 1.134-2.325 1.616-3.486z" fill="#f0f0f0" fill-rule="evenodd"/></g><g><path clip-rule="evenodd" d="m496.995 85.224c6.206-14.453 5.838-30.237 0-43.84-4.931-11.562-13.772-21.509-25.816-27.658-13.177-6.773-27.828-7.765-41.005-3.911 11.193 6.234 19.468 15.785 24.172 26.808 13.092 30.634-3.401 65.972-35.564 75.38.51.312 1.077.595 1.615.878 10.457 5.356 21.82 7.085 32.645 5.668 17.541-2.324 33.665-12.922 42.336-29.84.597-1.162 1.135-2.324 1.617-3.485z" fill="#e0dfe1" fill-rule="evenodd"/></g><g><path clip-rule="evenodd" d="m415.808 236.551h-125.791-96.887-43.952-18.703-14.565-10.91-51.83-37.859c-2.635 0-4.789 2.154-4.789 4.789v11.59c0 19.667 2.409 38.767 6.943 57.074l236.393 72.986 225.851-72.986c4.534-18.307 6.943-37.407 6.943-57.074v-11.59c0-2.636-2.154-4.789-4.789-4.789z" fill="#e29d7b" fill-rule="evenodd"/></g><g><path clip-rule="evenodd" d="m372.536 455.975c52.623-32.334 91.899-84.562 107.173-145.971h-115.646-24.739-321.859c15.274 61.438 54.55 113.637 107.173 145.971z" fill="#e8b094" fill-rule="evenodd"/></g><g><g><g><path clip-rule="evenodd" d="m372.536 455.975c52.623-32.334 91.899-84.562 107.173-145.971h-68.946c-15.246 61.409-54.522 113.637-107.173 145.971z" fill="#e29d7b" fill-rule="evenodd"/></g></g></g><g><path clip-rule="evenodd" d="m486.652 252.93v-11.59c0-2.636-2.154-4.789-4.789-4.789h-66.055-2.862c.963 0 1.87.283 2.607.793 1.303.85 2.182 2.324 2.182 3.996v11.59c0 19.667-2.409 38.767-6.971 57.074h68.946c4.533-18.307 6.942-37.407 6.942-57.074z" fill="#ce8b6b" fill-rule="evenodd"/></g><g><path clip-rule="evenodd" d="m89.188 155.276c-34.6-12.186-40.835-15.643-69.201-40.552-5.894-5.158-4.874-5.498-5.101 2.465-.283 8.842-.368 17.343-.142 25.505 20.431 17.286 29.074 21.282 59.169 31.881 34.119 12.015 55.287 34.006 58.092 61.976h3.599 13.574l-1.814-18.448-.085-.793c-1.87-18.732-11.93-34.771-28.621-46.928-8.245-6.037-18.135-11.11-29.47-15.106z" fill="#95d6a4" fill-rule="evenodd"/></g><g><path clip-rule="evenodd" d="m193.13 236.551c60.416-34.148 67.472-78.667 65.318-145.093-.255-8.445.255-12.951-6.093-7.396-4.761 4.194-8.983 7.85-12.837 11.052.963 60.616-8.445 102.217-65.573 134.494l-21.31 6.943z" fill="#78c2a4" fill-rule="evenodd"/></g><g><path clip-rule="evenodd" d="m372.536 498.568v-42.593h-68.946v28.593 13.999c0 3.231-2.635 5.866-5.866 5.866h68.917c3.231.001 5.895-2.634 5.895-5.865z" fill="#ce8b6b" fill-rule="evenodd"/></g><path d="m503.954 38.416c-5.783-13.561-16.201-24.723-29.325-31.424-15.038-7.707-32.178-9.095-48.265-3.907-16.088 5.188-29.184 16.328-36.872 31.362-8.732 17.036-9.218 37.018-1.561 54.373l-104.6 140.165h-65.348c18.957-15.077 31.63-33.239 39.205-55.862 9.035-26.985 9.901-57.245 8.422-94.378-.116-2.918-1.902-5.509-4.588-6.657-2.685-1.147-5.792-.646-7.981 1.287-30.784 27.194-38.922 33.331-63.081 42.618-3.9 1.499-5.847 5.876-4.347 9.776 1.499 3.901 5.875 5.846 9.776 4.347 23.525-9.043 34.206-16.305 55.558-34.782 1.019 64.909-9.902 104.654-59.896 133.65h-35.018l-.815-8.26 37.458-40.959c2.82-3.083 2.606-7.869-.477-10.689-3.083-2.819-7.868-2.607-10.689.477l-29.72 32.498c-4.083-12.643-11.812-23.859-22.829-33.264 8.023-10.461 19.462-19.28 34.123-26.261 3.773-1.796 5.375-6.311 3.578-10.083-1.796-3.773-6.312-5.376-10.083-3.578-17.001 8.094-30.369 18.517-39.869 31.034-7.371-4.547-15.727-8.491-25.014-11.759-35.238-12.394-39.251-14.827-71.575-43.392-2.188-1.934-5.295-2.436-7.982-1.288-2.686 1.147-4.472 3.739-4.588 6.658-1.746 43.973-.722 86.169 27.171 118.869h-19.411c-6.813 0-12.355 5.542-12.355 12.355v11.59c0 19.599 2.379 39.078 7.005 57.999.074.605.221 1.186.43 1.739 5.453 21.615 13.85 42.48 25.022 61.929 19.859 34.572 48.046 64.044 81.659 85.513v38.458c0 7.407 6.026 13.432 13.432 13.432h236.138c7.422 0 13.46-6.026 13.46-13.432v-38.46c33.613-21.469 61.8-50.941 81.659-85.513 11.172-19.45 19.569-40.314 25.022-61.93.208-.552.356-1.133.43-1.739 4.626-18.921 7.005-38.4 7.005-57.999v-11.59c0-6.813-5.542-12.355-12.355-12.355h-55.734l32.746-103.775c18.576-3.94 34.511-16.025 43.239-33.053.677-1.323 1.3-2.666 1.852-3.992 6.775-15.812 6.769-33.947-.012-49.748zm-481.717 88.269c23.678 20.301 32.27 24.414 64.439 35.728 10.523 3.703 19.618 8.352 27.18 13.804.258.212.528.415.82.596.015.009.031.015.046.024 14.751 10.926 23.421 25.007 25.029 41.214l1.079 10.933h-22.283l-42.311-33.558c-3.275-2.597-8.032-2.048-10.629 1.226s-2.048 8.033 1.226 10.629l27.364 21.703h-38.222c-27.76-24.167-34.33-55.526-33.738-102.299zm342.733 370.183h-232.766v-33.327h232.766zm114.116-252.751v8.813c0 16.888-1.822 33.462-5.328 49.507l-208.564-.027c-4.178 0-7.566 3.387-7.566 7.565s3.386 7.566 7.565 7.567l204.718.027c-15.59 53.524-50.411 100.051-99.558 130.841h-243.53c-49.148-30.79-83.969-77.317-99.558-130.841l203.329-.027c4.178 0 7.565-3.388 7.565-7.567-.001-4.178-3.388-7.565-7.567-7.565l-207.176.027c-3.506-16.045-5.328-32.619-5.328-49.507v-8.813zm-68.824-15.132h-108.049l94.158-126.173c5.546 6.957 12.517 12.674 20.578 16.803 8.051 4.124 16.76 6.436 25.653 6.882zm79.781-146.746c-.012.029-.025.058-.037.088-.401.968-.859 1.955-1.359 2.932-7.211 14.069-20.893 23.711-36.585 25.79-9.717 1.27-19.474-.423-28.214-4.9-8.752-4.483-15.821-11.415-20.446-20.056-7.491-13.941-7.656-30.667-.438-44.749 5.849-11.438 15.809-19.91 28.046-23.856 4.865-1.569 9.855-2.347 14.823-2.347 7.53 0 15.008 1.789 21.906 5.324 9.983 5.097 17.902 13.581 22.304 23.903 5.241 12.214 5.241 25.664 0 37.871z"/></g></svg>