<?xml version="1.0" encoding="iso-8859-1"?>
<!-- Generator: Adobe Illustrator 19.0.0, SVG Export Plug-In . SVG Version: 6.00 Build 0)  -->
<svg version="1.1" id="Capa_1" xmlns="http://www.w3.org/2000/svg" xmlns:xlink="http://www.w3.org/1999/xlink" x="0px" y="0px"
	 viewBox="0 0 512 512" style="enable-background:new 0 0 512 512;" xml:space="preserve">
<path style="fill:#4E901E;" d="M283.039,33.812v144.212c0,13.169-10.779,23.958-23.958,23.958h-6.471
	c-13.18,0-23.958-10.789-23.958-23.958V33.812c0-13.169,10.779-23.948,23.958-23.948h6.471c1.412,0,2.803,0.124,4.153,0.371
	C274.455,12.204,283.039,22.055,283.039,33.812z"/>
<path style="fill:#5EAC24;" d="M486.482,162.619c-54.851-17.373-151.765-40.693-215.932-14.395
	c-0.052,0.021-0.103,0.041-0.155,0.062c-9.243,3.792-19.548,3.792-28.791,0c-0.052-0.021-0.103-0.041-0.155-0.062
	c7.491-15.838,18.497-29.615,32.027-40.311c7.883-6.245,16.632-11.438,26.05-15.385c36.622-15.343,91.752-26.122,156.155,1.566
	c0,0,23.453,9.923,43.722,29.11c2.597,2.432,5.132,5.039,7.564,7.79C520.126,145.895,505.432,168.616,486.482,162.619z"/>
<g>
	<path style="fill:#6DC82A;" d="M499.404,123.204c-3.813,1.463-8.233,1.741-12.922,0.258
		c-54.027-17.116-148.86-39.992-213.005-15.55c7.883-6.245,16.632-11.438,26.05-15.385c36.622-15.343,91.752-26.122,156.155,1.566
		C455.681,94.094,479.135,104.017,499.404,123.204z"/>
	<path style="fill:#6DC82A;" d="M270.55,148.224l-0.155,0.062c-9.243,3.792-19.548,3.792-28.791,0
		c-0.052-0.021-0.103-0.041-0.155-0.062c-64.166-26.297-161.081-2.978-215.932,14.395c-18.95,5.997-33.644-16.724-20.485-31.625
		c2.195-2.483,4.482-4.843,6.811-7.079c20.434-19.651,44.474-29.821,44.474-29.821c64.403-27.688,119.533-16.91,156.155-1.566
		c10.408,4.359,20.001,10.253,28.523,17.384C253.403,120.309,263.522,133.354,270.55,148.224z"/>
</g>
<path style="fill:#FF6243;" d="M435.876,365.33l0.052,0.021c-1.092,1.659-2.566,3.596-4.39,5.791
	c-6.049,7.656-12.829,14.725-20.248,21.063c-13.025,12.541-23.597,19.754-39.394,32.294c-3.988,3.174-8.305,6.688-13.076,10.706
	c-1.247,1.041-2.535,2.133-3.844,3.256l-54.882,40.105c-77.47-15.22-133.331-83.127-133.331-162.08v-37.024
	c0-60.663,36.427-112.804,88.588-135.752c5.585-2.473,11.356-4.596,17.281-6.337c1.443-0.443,2.896-0.855,4.359-1.237
	c11.943-3.164,24.484-4.864,37.405-4.926c81.561-0.33,148.643,66.279,148.87,147.85C463.348,311.221,453.198,341.012,435.876,365.33
	z"/>
<path style="fill:#FF5023;" d="M366.784,414.236c-2.349,7.11-4.998,14.117-7.965,20.97c-1.247,1.041-2.535,2.133-3.844,3.256
	l-54.882,40.105c-77.47-15.22-133.331-83.127-133.331-162.08v-37.024c0-60.663,36.427-112.804,88.588-135.752
	c5.585-2.473,11.356-4.596,17.281-6.337c5.915,1.762,11.665,3.885,17.24,6.337c12.943,5.688,24.906,13.169,35.582,22.124
	c16.477,13.818,28.873,31.82,36.293,52.007c6.461,17.569,14.282,44.155,17.6,76.367v0.021
	C382.931,329.089,381.231,370.534,366.784,414.236z"/>
<path style="fill:#FF7956;" d="M332.264,414.236c-5.297,16.024-12.139,31.491-20.568,46.092c-2.628,4.565-5.41,9.037-8.347,13.427
	c-20.98,31.295-64.29,37.838-93.442,13.963l-43.145-35.345c-26.225-22.443-50.163-43.619-67.33-60.168
	c-7.419-6.337-14.2-13.406-20.248-21.063c-1.824-2.195-3.308-4.132-4.39-5.791l0.041-0.021
	c-17.25-24.216-27.389-53.862-27.389-85.868c0-7.357,0.536-14.591,1.577-21.66c5.06-34.582,22.062-65.29,46.69-87.805
	c26.359-24.092,61.456-38.786,99.985-38.786c21.217,0,41.414,4.462,59.653,12.499c12.943,5.688,24.906,13.169,35.582,22.124
	c16.477,13.818,28.873,31.82,36.293,52.007c6.461,17.569,14.282,44.155,17.6,76.367v0.021
	C348.411,329.089,346.711,370.534,332.264,414.236z"/>
<path style="fill:#FF9478;" d="M332.264,414.236c-5.297,16.024-12.139,31.491-20.568,46.092c-22.598,15.21-53.532,14.9-76.027-3.524
	l-43.145-35.345c-26.225-22.443-50.163-43.619-67.33-60.168c-7.419-6.337-14.2-13.406-20.248-21.062
	c-1.824-2.195-3.308-4.132-4.39-5.791l0.041-0.021c-17.25-24.216-27.389-53.862-27.389-85.868c0-7.357,0.536-14.591,1.577-21.66
	c3.019-20.65,10.305-39.92,20.929-56.891c26.359-24.092,61.456-38.786,99.985-38.786c21.217,0,41.414,4.462,59.653,12.499
	c12.943,5.688,24.906,13.169,35.582,22.124c16.477,13.818,28.873,31.82,36.293,52.007c6.461,17.569,14.282,44.155,17.6,76.367v0.021
	C348.411,329.089,346.711,370.534,332.264,414.236z"/>
<path style="fill:#5EAC24;" d="M283.039,33.812v56.283h-7.46c-6.801,0-12.365-5.564-12.365-12.365v-66.98
	c0-0.175,0-0.34,0.021-0.515C274.455,12.204,283.039,22.055,283.039,33.812z"/>
<path style="fill:#7ED63E;" d="M240.996,109.911C176.83,83.913,80.245,107.16,25.518,124.492c-4.998,1.577-9.697,1.164-13.674-0.577
	c20.434-19.651,44.474-29.821,44.474-29.821c64.403-27.688,119.533-16.91,156.155-1.566
	C222.881,96.887,232.475,102.781,240.996,109.911z"/>
<g>
</g>
<g>
</g>
<g>
</g>
<g>
</g>
<g>
</g>
<g>
</g>
<g>
</g>
<g>
</g>
<g>
</g>
<g>
</g>
<g>
</g>
<g>
</g>
<g>
</g>
<g>
</g>
<g>
</g>
</svg>
