<svg id="_x33_0" enable-background="new 0 0 64 64" height="512" viewBox="0 0 64 64" width="512" xmlns="http://www.w3.org/2000/svg"><g><g><g><path d="m56 24h-6c-2.21 0-4.21.9-5.66 2.34-.11.11-.21.22-.3.33l-.04-.04v-5.63c0-1.66 1.34-3 3-3h7c2.21 0 4.21-.9 5.66-2.34 1.44-1.45 2.34-3.45 2.34-5.66 0-4.42-3.58-8-8-8h-17c-1.94 0-3.68.78-4.95 2.05-.56.56-1.03 1.22-1.37 1.95h-5.68-7c-2.76 0-5.26 1.12-7.07 2.93-1.67 1.67-2.75 3.93-2.91 6.44h-.02v.63h-6c0 4.42 1.79 8.42 4.68 11.32 2.9 2.89 6.9 4.68 11.32 4.68h5 1c5.52 0 10 4.48 10 10h-4c0-1.66-.67-3.16-1.76-4.24-1.08-1.09-2.58-1.76-4.24-1.76h-5c-4.97 0-9 4.03-9 9 0 2.48 1.01 4.74 2.64 6.36 1.62 1.63 3.88 2.64 6.36 2.64h3c2.76 0 5 2.24 5 5v3h4 8c-2.21 0-4-1.79-4-4 0-1.1.45-2.1 1.17-2.83.73-.72 1.73-1.17 2.83-1.17h14c3.87 0 7-3.13 7-7v-12.54c.08-.07.16-.14.24-.22 1.09-1.08 1.76-2.58 1.76-4.24 0-3.31-2.69-6-6-6z" fill="#ccd1d9"/></g></g><g><path d="m54 13h-5v2h5c2.757 0 5-2.243 5-5s-2.243-5-5-5h-9v2h9c1.654 0 3 1.346 3 3s-1.346 3-3 3z"/><path d="m54 31h-3v2h3c1.654 0 3-1.346 3-3s-1.346-3-3-3h-2c-2.757 0-5 2.243-5 5s2.243 5 5 5h1v-2h-1c-1.654 0-3-1.346-3-3s1.346-3 3-3h2c.552 0 1 .448 1 1s-.448 1-1 1z"/><path d="m63 30c0-3.859-3.141-7-7-7h-6c-4.963 0-9 4.037-9 9s4.037 9 9 9h3c3.309 0 6 2.691 6 6s-2.691 6-6 6h-14c-2.757 0-5 2.243-5 5s2.243 5 5 5h1v-2h-1c-1.654 0-3-1.346-3-3s1.346-3 3-3h14c4.411 0 8-3.589 8-8s-3.589-8-8-8h-3c-3.859 0-7-3.141-7-7s3.141-7 7-7h6c2.757 0 5 2.243 5 5s-2.243 5-5 5h-1v2h1c3.859 0 7-3.141 7-7z"/><path d="m23 43h2v-2h-2c-2.206 0-4 1.794-4 4s1.794 4 4 4h1c1.87 0 3.628-.729 4.95-2.051 1.322-1.323 2.051-3.081 2.05-4.951-.001-3.858-3.142-6.998-7-6.998h-5c-5.514 0-10 4.486-10 10s4.486 10 10 10h3c2.206 0 4 1.794 4 4v4h2v-4c0-3.309-2.691-6-6-6h-3c-4.411 0-8-3.589-8-8s3.589-8 8-8h5c2.756 0 4.999 2.242 5 4.998 0 1.336-.52 2.592-1.464 3.537-.944.944-2.2 1.465-3.536 1.465h-1c-1.103 0-2-.897-2-2s.897-2 2-2z"/><path d="m24 33c4.963 0 9 4.037 9 9h2c0-6.065-4.935-11-11-11h-6c-8.271 0-15-6.729-15-15h-2c0 9.374 7.626 17 17 17z"/><path d="m18 27h10c2.757 0 5 2.243 5 5h2c0-3.859-3.141-7-7-7h-10c-4.963 0-9-4.037-9-9s4.037-9 9-9h7v-2h-7c-6.065 0-11 4.935-11 11s4.935 11 11 11z"/><path d="m39 51h14c2.206 0 4-1.794 4-4s-1.794-4-4-4h-3c-6.065 0-11-4.935-11-11s-4.935-11-11-11h-10c-2.757 0-5-2.243-5-5s2.243-5 5-5h11.26c.352 1.37 1.056 2.63 2.083 3.656 1.511 1.51 3.519 2.342 5.655 2.342h.002l1.003-.001c2.756-.001 4.997-2.243 4.997-5.08 0-2.71-2.207-4.915-5.006-4.915-1.651.001-2.994 1.347-2.994 2.998 0 1.652 1.346 2.999 3 3h1v-2h-.999c-.552-.001-1.001-.449-1.001-1 0-.55.447-.998 1.081-.998 1.609 0 2.919 1.308 2.919 2.998 0 1.652-1.345 2.996-2.997 2.997l-1.003.001c-.001 0-.001 0-.002 0-1.602 0-3.107-.624-4.24-1.757-1.134-1.133-1.758-2.638-1.758-4.241 0-3.309 2.691-6 6-6h17c3.859 0 7 3.141 7 7s-3.141 7-7 7h-7c-2.206 0-4 1.794-4 4h2c0-1.103.897-2 2-2h7c4.963 0 9-4.037 9-9s-4.037-9-9-9h-17c-4.411 0-8 3.589-8 8h-11c-3.859 0-7 3.141-7 7s3.141 7 7 7h10c4.963 0 9 4.037 9 9 0 7.168 5.832 13 13 13h3c1.103 0 2 .897 2 2s-.897 2-2 2h-14c-4.963 0-9 4.037-9 9v5h2v-5c0-3.859 3.141-7 7-7z"/><path d="m18 15h9v-2h-9c-1.654 0-3 1.346-3 3s1.346 3 3 3h3v-2h-3c-.552 0-1-.448-1-1s.448-1 1-1z"/><path d="m39 19h2v6h-2z"/></g></g></svg>