<svg height="512" viewBox="0 0 58 58" width="512" xmlns="http://www.w3.org/2000/svg"><g id="049---Spices" fill="none" transform="translate(0 -1)"><path id="Shape" d="m34 30 20-3 1.47.62-.22 1.08c-1.2898908 6.5627665-7.0416736 11.2965717-13.73 11.3h-1.52z" fill="#805333"/><path id="Shape" d="m18 17v5.22l21.68 11.68c6.81-.34 12.64-2.79 15.79-6.28 1.5692838-1.6097281 2.4728795-3.752643 2.53-6v-4.62z" fill="#a56a43"/><path id="Shape" d="m19.38 21.46c-.8982437-1.3139656-1.379197-2.8683509-1.38-4.46 0-5.63 6.48-10.35 15.17-11.64l16.44 1.88c5.68 2.45 10.13 7.27 7.76 12.82-2.22 5.21-10 9.05-19.37 9.05-1.26 0-1.61-.05-1.72-.05z" fill="#cb8252"/><path id="Shape" d="m53.5 19c-1.78 3.45-8 6-15.5 6-2.6132723.0169333-5.2168425-.3194453-7.74-1l-7-3.9c-.4686178-.530036-.8257143-1.1490031-1.05-1.82 2.78-1.74 7.09-5 7.8-8.2.99-4.46 8.85-9.57 12.99-9.08 4.84.63 7.38 7.86 9.91 13.06.15.31.88 1.79 1 1.86.2641676 1.0412097.117347 2.1441542-.41 3.08z" fill="#c03a2b"/><path id="Shape" d="m30 10.08c-.72 3.2-5 6.47-7.8 8.2-1.27-4.11 3.6-7 7.8-8.2z" fill="#805333"/><g fill="#e64c3c"><circle id="Oval" cx="37" cy="9" r="1"/><circle id="Oval" cx="43" cy="12" r="1"/><circle id="Oval" cx="42" cy="18" r="1"/><circle id="Oval" cx="35" cy="15" r="1"/><circle id="Oval" cx="43" cy="7" r="1"/></g><path id="Shape" d="m37.47 46.62-.22 1.08c-1.2898908 6.5627665-7.0416736 11.2965717-13.73 11.3h-7c-6.70336918.015713-12.47722224-4.7224525-13.77-11.3l-.22-1.08z" fill="#805333"/><path id="Shape" d="m0 36v4.62c0 6.81 9 12.38 20 12.38s20-5.52 20-12.33v-4.67z" fill="#cb8252"/><path id="Shape" d="m15.17 24.36c-8.69 1.29-15.17 6.01-15.17 11.64 0 6.66 9 12.06 20 12.06 9.32 0 17.15-3.84 19.37-9 2.36-5.53-2-10.36-7.76-12.82z" fill="#cf976a"/><path id="Shape" d="m35.5 38c-1.78 3.45-8 6-15.5 6s-13.72-2.55-15.5-6c-.11691361-.2325977-.21716565-.4732026-.3-.72 2.78-1.74 7.09-5 7.8-8.2 1-4.46 8.86-9.57 13-9 4.84.63 7.38 7.86 9.91 13.06.15.31.88 1.79 1 1.86.2430507 1.0160981.096779 2.0863786-.41 3z" fill="#f0c419"/><path id="Shape" d="m12 29.08c-.72 3.2-5 6.47-7.8 8.2-1.27-4.11 3.6-7 7.8-8.2z" fill="#805333"/><circle id="Oval" cx="19" cy="29" fill="#f29c1f" r="1"/><circle id="Oval" cx="27" cy="34" fill="#f29c1f" r="1"/><circle id="Oval" cx="21" cy="39" fill="#f29c1f" r="1"/><circle id="Oval" cx="13" cy="38" fill="#f29c1f" r="1"/><circle id="Oval" cx="25" cy="26" fill="#f29c1f" r="1"/></g></svg>