<svg id="Capa_1" enable-background="new 0 0 511.191 511.191" height="512" viewBox="0 0 511.191 511.191" width="512" xmlns="http://www.w3.org/2000/svg"><g id="XMLID_8_"><path id="XMLID_29_" d="m249.747 118.303c-19.746-31.084-47.104-49.642-73.181-49.642-.667 0-1.312-.013-1.94-.025-3.046-.058-7.011-.134-11.404 1.048l-44.526.689c-4.069-1.177-8.023-1.712-12.483-1.712-26.077 0-53.435 18.558-73.181 49.642-15.07 23.72-33.032 65.782-33.032 131.46 0 53.791 7.82 104.583 22.021 143.018 20.425 55.284 46.615 66.888 64.989 66.888 6.982 0 15.487-3.088 25.325-9.19l56.415.48c6.934 3.814 18.256 8.709 27.019 8.709 27.148 0 52.315-28.317 69.048-77.692l.401-1.185 16.915-104.62.042-.806c.509-9.63.603-16.178.603-25.603 0-65.677-17.962-107.739-33.031-131.459z" fill="#fb3"/><path id="XMLID_38_" d="m249.747 118.303c-19.746-31.084-47.104-49.642-73.181-49.642-.667 0-1.312-.013-1.94-.025-3.046-.058-7.011-.134-11.404 1.048l-21.831.338v380.705l27.359.233c6.934 3.814 18.256 8.709 27.019 8.709 27.148 0 52.315-28.317 69.048-77.692l.401-1.185 16.915-104.62.042-.806c.509-9.63.603-16.178.603-25.603 0-65.678-17.962-107.74-33.031-131.46z" fill="#f93"/><g id="XMLID_13_"><path id="XMLID_3706_" d="m126.389 13.572h30v57.288h-30z" fill="#b35324"/></g><path id="XMLID_9_" d="m212.206 270.802c-.006-1.611-17.767-214.943-70.815-214.943s-80.804 106.079-80.804 210.866 27.755 210.866 80.804 210.866c46.625 0 61.578-89.242 68.777-165.663 0 0 2.053-37.117 2.038-41.126z" fill="#ffd400"/><path id="XMLID_42_" d="m141.391 13.572h14.998v57.288h-14.998z" fill="#803c19"/><path id="XMLID_44_" d="m222.195 266.725c0-104.787-27.755-210.866-80.804-210.866v421.732c46.625 0 71.578-89.242 78.777-165.663 0 0 2.052-37.117 2.038-41.126-.006-1.611-.011-3.052-.011-4.077z" fill="#fb3"/><path id="XMLID_4147_" d="m478.595 283.897-106.407-15.461-47.587-96.422-47.587 96.422-106.407 15.461 76.997 75.054-18.176 105.977 95.173-50.035 95.174 50.035-18.177-105.977z" fill="#ffe666"/><path id="XMLID_14_" d="m478.595 283.897-106.407-15.461-47.587-96.422v242.879l95.174 50.035-18.177-105.977z" fill="#ffd400"/><g id="XMLID_10_"><path id="XMLID_3699_" d="m433.214 485.61-108.613-57.101-108.613 57.101 20.743-120.943-87.87-85.653 121.434-17.645 54.307-110.038 54.307 110.038 121.433 17.645-87.87 85.653zm-108.613-90.624 69.205 36.384-13.217-77.061 55.988-54.575-77.373-11.243-34.602-70.112-34.602 70.112-77.374 11.243 55.988 54.575-13.217 77.061z" fill="#ffd400"/></g><path id="XMLID_76_" d="m500.341 279.015-121.433-17.645-54.307-110.038v67.046l34.603 70.112 77.373 11.243-55.988 54.575 13.217 77.061-69.205-36.383v33.523l108.613 57.101-20.743-120.943z" fill="#fb3"/><g id="XMLID_21_"><path id="XMLID_3698_" d="m309.768 147.945h29.67v33.438h-29.67z" fill="#ffe666"/></g><path id="XMLID_15_" d="m324.601 147.945h14.836v33.438h-14.836z" fill="#ffd400"/><g id="XMLID_22_"><path id="XMLID_3697_" d="m476.558 302.198-9.312-27.992 34.803-11.286 9.142 28.229z" fill="#ffd400"/></g><g id="XMLID_182_"><path id="XMLID_3696_" d="m424.317 497.505-20.405-27.3 23.624-17.705 20.51 27.19z" fill="#ffd400"/></g><g id="XMLID_183_"><path id="XMLID_3695_" d="m223.317 497.62-23.216-18.479 21.681-27.312 23.25 18.512z" fill="#ffe666"/></g><g id="XMLID_184_"><path id="XMLID_3694_" d="m172.124 301.691-30.735-12.731 11.262-27.452 30.512 12.523z" fill="#ffe666"/></g><path id="XMLID_3702_" d="m373.262 333.8-9.169-28.22-24.656 8.011v-25.925h-29.672v25.925l-24.656-8.011-9.169 28.22 24.656 8.01-15.238 20.973 24.005 17.442 15.238-20.974 15.238 20.974 24.005-17.442-15.238-20.973z" fill="#fff3e1"/><path id="XMLID_83_" d="m373.262 333.8-9.169-28.22-24.656 8.011v-25.925h-14.836v71.585l15.238 20.974 24.005-17.442-15.238-20.973z" fill="#ede9e8"/></g></svg>