<svg height="512pt" viewBox="-31 0 512 512" width="512pt" xmlns="http://www.w3.org/2000/svg"><path d="m282.675781 182.945312c-4.683593-18.839843-11.636719-36.339843-20.691406-52.015624-25.433594-44.042969-71.667969-80.371094-133.722656-105.085938-46.132813-18.371094-84.582031-23.960938-86.195313-24.191406l-11.644531-1.652344-4.390625 10.90625c-.613281 1.511719-14.988281 37.597656-22.144531 86.746094-9.632813 66.09375-1.28125 124.316406 24.152343 168.359375 33.570313 58.148437 95.652344 90.945312 141.816407 108.207031l12.285156 4.601562 32.25-60.191406 69.675781-130.070312zm0 0" fill="#ff9f00"/><path d="m284.066406 188.558594-69.675781 130.070312-24.035156-41.613281-90.347657-156.480469-.019531-.050781-69.566406-120.484375 11.644531 1.652344c1.613282.230468 40.0625 5.820312 86.195313 24.191406 62.054687 24.714844 108.289062 61.042969 133.722656 105.085938 9.054687 15.675781 16.007813 33.175781 20.691406 52.015624zm0 0" fill="#ff7816"/><path d="m183.632812 235.34375 19.730469 34.167969-13.007812 7.503906-1.148438.671875-6.273437 23.390625-71.289063-19.097656 7.773438-28.996094 47.003906 12.59375-38.796875-67.214844-76.011719-20.371093 7.773438-28.992188 47.003906 12.59375-19.398437-33.605469 25.992187-15.007812 49.417969 85.605469 12.597656-47.015626 28.992188 7.773438zm0 0" fill="#ff7816"/><path d="m183.632812 235.34375 19.730469 34.167969-13.007812 7.503906-90.347657-156.480469-.019531-.050781 12.996094-7.503906 49.417969 85.605469 12.597656-47.015626 28.992188 7.773438zm0 0" fill="#ff4b00"/><path d="m422.109375 382.332031c-25.433594 44.074219-71.699219 80.242188-133.78125 104.625-28.40625 11.144531-53.566406 17.648438-78.710937 22.082031-.0625.007813-.128907.019532-.191407.03125l-1.359375-17.511718-3.753906.371094-20.660156 2.039062c-8.535156-23.8125-15.238282-48.835938-19.640625-78.839844-9.625-65.773437-1.28125-123.816406 24.152343-167.867187 25.425782-44.035157 71.667969-80.375 133.722657-105.085938 35.476562-14.128906 65.902343-21.3125 97.839843-25.84375 12.085938 30.023438 21.101563 60.332031 26.535157 97.652344 9.632812 66.09375 1.28125 124.3125-24.152344 168.347656zm0 0" fill="#ff9f00"/><path d="m204.3125 491.929688 3.753906-.371094 1.359375 17.511718c.0625-.011718.128907-.023437.191407-.03125 25.144531-4.433593 50.304687-10.9375 78.710937-22.082031 62.082031-24.382812 108.347656-60.550781 133.78125-104.625 25.433594-44.035156 33.785156-102.253906 24.152344-168.347656-5.433594-37.320313-14.449219-67.628906-26.535157-97.652344l-217.683593 375.820313zm0 0" fill="#ff7816"/><path d="m368.519531 346.3125-76.328125 20.449219-82.574218 142.277343c-5.542969.980469-11.097657 1.839844-16.667969 2.621094-.800781.121094-1.601563.230469-2.402344.339844-2.410156-5.953125-4.710937-11.945312-6.894531-18.03125l52.726562-90.765625-20.238281-75.539063 28.996094-7.773437 12.496093 46.644531 38.847657-67.039062-20.308594-75.808594 28.996094-7.773438 12.566406 46.914063 19.4375-33.539063 13.367187 7.746094 12.609376 7.304688-49.636719 85.632812 47.234375-12.644531zm0 0" fill="#ff7816"/><path d="m209.617188 509.039062 82.574218-142.277343 76.328125-20.449219-7.773437-28.984375-47.234375 12.644531 49.636719-85.632812-12.609376-7.304688-.542968-.316406-159.449219 275.28125c.800781-.109375 1.601563-.21875 2.402344-.339844 5.570312-.78125 11.125-1.640625 16.667969-2.621094zm0 0" fill="#ff4b00"/></svg>