<?xml version="1.0" encoding="iso-8859-1"?>
<!-- Generator: Adobe Illustrator 18.0.0, SVG Export Plug-In . SVG Version: 6.00 Build 0)  -->
<!DOCTYPE svg PUBLIC "-//W3C//DTD SVG 1.1//EN" "http://www.w3.org/Graphics/SVG/1.1/DTD/svg11.dtd">
<svg version="1.1" id="Capa_1" xmlns="http://www.w3.org/2000/svg" xmlns:xlink="http://www.w3.org/1999/xlink" x="0px" y="0px"
	 viewBox="0 0 339.149 339.149" style="enable-background:new 0 0 339.149 339.149;" xml:space="preserve">
<g>
	<path style="fill:#CE593F;" d="M240.168,246.943c-7.872-13.465-22.728-45.195-31.825-74.195h-52.081
		c-9.095,29-23.953,60.732-31.825,74.195c-12.389,21.191-17.025,36.453-13.406,45.992c2.142,5.644,7.192,9.813,16.765,11.813
		h109.012c9.572-2,14.623-6.169,16.765-11.813C257.193,283.396,252.558,268.134,240.168,246.943z M164.715,203.229l-37.141,80.785
		c-1.266,2.755-3.989,4.379-6.836,4.379c-1.051,0-2.118-0.221-3.136-0.689c-3.772-1.734-5.423-6.198-3.69-9.97l24.762-53.857
		l12.381-26.928c1.301-2.828,4.137-4.465,7.065-4.375c0.976,0.03,1.963,0.253,2.906,0.685
		C164.798,194.993,166.45,199.456,164.715,203.229z"/>
	<g>
		<path style="fill:#84BD93;" d="M208.724,68.744c0.039-0.099,0.068-0.172,0.105-0.264
			C208.794,68.568,208.761,68.651,208.724,68.744z"/>
		<path style="fill:#84BD93;" d="M200.604,89.374c-0.001-0.147,2.696-6.524,5.119-12.63c-0.073,0.185-0.145,1.004-0.219,1.004
			h-41.509c0.008,18,0.024,58.632-0.004,61.924c-0.051,6.744-0.723,13.076-1.847,20.076h42.246c-2.281-10-3.698-20.551-3.775-30.554
			C200.598,126.904,200.6,106.296,200.604,89.374z"/>
		<path style="fill:#84BD93;" d="M206.062,75.437c0.139-0.35,0.275-0.693,0.411-1.034C206.337,74.745,206.202,75.087,206.062,75.437
			z"/>
		<path style="fill:#84BD93;" d="M206.889,73.355c0.082-0.206,0.161-0.405,0.241-0.605C207.05,72.951,206.971,73.149,206.889,73.355
			z"/>
	</g>
	<path style="fill:#84BD93;" d="M137.614,321.748c1.943,2,4.641,2,7.621,2h74.597c2.979,0,5.675,0,7.617-2H137.614z"/>
	<polygon style="fill:#EF8829;" points="195.137,27.748 166.926,27.748 170.19,56.748 191.873,56.748 	"/>
	<path style="fill:#3F2D20;" d="M158.12,192.573c-2.928-0.089-5.764,1.547-7.065,4.375l-12.381,26.928l12.382-26.928
		C152.356,194.121,155.192,192.485,158.12,192.573z"/>
	<path style="fill:#3F2D20;" d="M161.025,193.258c-0.943-0.433-1.93-0.655-2.906-0.685c-2.928-0.088-5.763,1.547-7.064,4.375
		l-12.382,26.928l-24.762,53.857c-1.733,3.772-0.082,8.235,3.69,9.97c1.018,0.468,2.085,0.689,3.136,0.689
		c2.846,0,5.569-1.625,6.836-4.379l37.141-80.785C166.45,199.456,164.798,194.993,161.025,193.258z"/>
	<path style="fill:#3F2D20;" d="M253.147,238.531c-11.168-19.103-37.18-68.007-37.498-109.43
		c-0.013-1.711-0.017-15.273-0.012-38.236l12.12-28.634c0.983-2.322,0.736-4.981-0.656-7.082c-1.392-2.101-3.745-3.365-6.266-3.365
		H207.05l5.973-43.239c0.297-2.153-0.352-4.329-1.78-5.967C209.816,0.941,207.749,0,205.576,0h-56.568
		c-2.173,0-4.24,0.941-5.667,2.579c-1.427,1.638-2.077,3.814-1.78,5.967l5.973,43.239c0,0-4.375,0.027-6.398,2.203
		c-1.359,1.461-2.202,3.323-2.2,5.318c0,0.254,0.004,10.201,0.008,22.517H98.989c-11.665,0-20.089,3.459-25.034,10.28
		c-5.738,7.915-6.117,19.123-1.155,34.283l33.939,102.74c-1.973,3.621-3.78,6.799-5.303,9.405
		c-15.185,25.97-19.921,45.561-14.484,59.893c4.32,11.386,14.142,17.143,22.651,20.482c2.527,11.56,12.848,20.242,25.155,20.242
		h85.073c12.309,0,22.628-8.683,25.155-20.245c8.51-3.34,18.325-9.097,22.643-20.479
		C273.067,284.092,268.33,264.501,253.147,238.531z M219.831,324.115h-85.073c-2.98,0-5.677-1.226-7.621-3.197h100.31
		C225.506,322.889,222.81,324.115,219.831,324.115z M117.775,305.884c-9.573-3.29-14.623-7.149-16.765-12.793
		c-3.619-9.539,1.016-25.781,13.405-46.972c7.872-13.463,22.73-41.037,31.825-71.291h62.104
		c9.097,30.254,23.953,57.826,31.825,71.291c12.39,21.191,17.025,37.433,13.405,46.972c-2.142,5.644-7.192,9.503-16.765,12.793
		H117.775z M153.968,129.219c0.027-3.292,0.012-44.951,0.004-62.4h55.519c0,0-8.889,22.288-8.887,22.555
		c-0.004,16.921-0.006,37.552,0.012,39.843c0.076,10.003,1.494,20.335,3.774,30.576h-54.194
		C152.474,149.552,153.892,139.221,153.968,129.219z M191.873,51.785h-29.162l-5.076-36.751h39.314L191.873,51.785z M87.082,121.69
		c-3.21-9.809-3.549-17.183-0.953-20.763c1.958-2.701,6.286-4.07,12.861-4.07h39.958c0.004,15.533,0.002,30.389-0.012,32.244
		c-0.211,27.376-11.642,58.011-22.594,81.158L87.082,121.69z"/>
</g>
<g>
</g>
<g>
</g>
<g>
</g>
<g>
</g>
<g>
</g>
<g>
</g>
<g>
</g>
<g>
</g>
<g>
</g>
<g>
</g>
<g>
</g>
<g>
</g>
<g>
</g>
<g>
</g>
<g>
</g>
</svg>
