<svg height="512" viewBox="0 0 512 512" width="512" xmlns="http://www.w3.org/2000/svg"><path d="m16 224h480a0 0 0 0 1 0 0v232a8 8 0 0 1 -8 8h-464a8 8 0 0 1 -8-8v-232a0 0 0 0 1 0 0z" fill="#4b873c"/><rect fill="#734119" height="192" rx="8" width="480" x="16" y="272"/><path d="m248 272-24 192h64l-24-192z" fill="#73a041"/><g fill="#4b873c"><path d="m256 272v192h32l-24-192z"/><path d="m277.333 272 74.667 192h64l-122.667-192z"/><path d="m328 272h-16l168 192h8a8 8 0 0 0 8-8v-34.667z"/><path d="m496 355.692-136-83.692h-16l152 110.545z"/><path d="m496 320.941-104-48.941h-16l120 64z"/><path d="m496 299.429-72-27.429h-16l88 37.053z"/><path d="m496 284.8-40-12.8h-16l56 19.478z"/><path d="m488 272h-16l24 8a8 8 0 0 0 -8-8z"/></g><path d="m216 272-122.667 192h64l74.667-192z" fill="#73a041"/><path d="m181.333 272-165.333 146.963v37.037a8 8 0 0 0 8 8h5.333l168-192z" fill="#73a041"/><path d="m16 380.606 149.333-108.606h-16l-133.333 82.051z" fill="#73a041"/><path d="m16 334.578 117.333-62.578h-16l-101.333 47.686z" fill="#73a041"/><path d="m16 307.93 85.333-35.93h-16l-69.333 26.413z" fill="#73a041"/><path d="m16 290.551 53.333-18.551h-16l-37.333 11.947z" fill="#73a041"/><path d="m16 280 21.333-8h-13.333a8 8 0 0 0 -8 8z" fill="#73a041"/><path d="m160 208h96v64h-96z" fill="#d7e6f0"/><path d="m208 224a16 16 0 0 1 16 16v32a0 0 0 0 1 0 0h-32a0 0 0 0 1 0 0v-32a16 16 0 0 1 16-16z" fill="#3c413c"/><path d="m256 208 48-48 48 48v64h-96z" fill="#a5c3dc"/><path d="m160 208 48-48h96l-48 48z" fill="#736969"/><path d="m208 96h48v64h-48z" fill="#d7e6f0"/><path d="m256 96h48v64h-48z" fill="#a5c3dc"/><path d="m208 96 48-48 48 48z" fill="#3c413c"/><path d="m208 96 48-48v48z" fill="#736969"/><circle cx="232" cy="128" fill="#3c413c" r="13.333"/><circle cx="304" cy="208" fill="#3c413c" r="13.333"/><path d="m464 248v-34.7a63.955 63.955 0 0 1 .871-10.522l8.919-53.514a6.3 6.3 0 0 1 6.21-5.264 6.3 6.3 0 0 1 6.21 5.261l8.919 53.514a63.955 63.955 0 0 1 .871 10.525v34.7a8 8 0 0 1 -8 8h-16a8 8 0 0 1 -8-8z" fill="#73a041"/><path d="m474.667 256h10.667v16h-10.667z" fill="#734119"/><path d="m392 248v-34.7a63.955 63.955 0 0 1 .871-10.522l8.919-53.514a6.3 6.3 0 0 1 6.21-5.264 6.3 6.3 0 0 1 6.21 5.261l8.919 53.514a63.955 63.955 0 0 1 .871 10.525v34.7a8 8 0 0 1 -8 8h-16a8 8 0 0 1 -8-8z" fill="#73a041"/><path d="m402.667 256h10.667v16h-10.667z" fill="#734119"/><path d="m16 248v-34.7a63.955 63.955 0 0 1 .871-10.522l8.919-53.514a6.3 6.3 0 0 1 6.21-5.264 6.3 6.3 0 0 1 6.21 5.261l8.919 53.514a63.955 63.955 0 0 1 .871 10.525v34.7a8 8 0 0 1 -8 8h-16a8 8 0 0 1 -8-8z" fill="#73a041"/><path d="m26.667 256h10.667v16h-10.667z" fill="#734119"/><path d="m88 248v-34.7a63.955 63.955 0 0 1 .871-10.522l8.919-53.514a6.3 6.3 0 0 1 6.21-5.264 6.3 6.3 0 0 1 6.21 5.261l8.919 53.514a63.955 63.955 0 0 1 .871 10.525v34.7a8 8 0 0 1 -8 8h-16a8 8 0 0 1 -8-8z" fill="#73a041"/><path d="m98.667 256h10.667v16h-10.667z" fill="#734119"/></svg>